<?xml version="1.0" encoding="UTF-8"?>
<svg width="280px" height="173px" viewBox="0 0 280 173" version="1.1" xmlns="http://www.w3.org/2000/svg" xmlns:xlink="http://www.w3.org/1999/xlink">
    <!-- Generator: Sketch 42 (36781) - http://www.bohemiancoding.com/sketch -->
    <title>node-logo</title>
    <desc>Created with Sketch.</desc>
    <defs>
        <path d="M28.4178507,67.7713235 L1.8288091,52.427123 C0.83489111,51.8534903 0.222763841,50.7939422 0.222763841,49.6460458 L0.222763841,18.9349265 C0.222763841,17.7876612 0.83489111,16.728113 1.82817804,16.1532183 L28.4165886,0.797027568 C29.4111376,0.2233949 30.6353922,0.2233949 31.6293102,0.797027568 L58.2120412,16.1532183 C59.2053281,16.728113 59.8168243,17.7876612 59.8168243,18.9349265 L59.8168243,49.6473079 C59.8168243,50.7939422 59.2053281,51.8534903 58.2107791,52.427123 L31.6286791,67.7713235 C31.1320356,68.0578243 30.5773347,68.2017058 30.0232649,68.2017058 C29.468564,68.2017058 28.9144942,68.0578243 28.4178507,67.7713235" id="path-1"></path>
        <linearGradient x1="-4418.47%" y1="16.568%" x2="5323.2292%" y2="16.568%" id="linearGradient-3">
            <stop stop-color="#9BB48F" offset="0%"></stop>
            <stop stop-color="#9BB48F" offset="9.19165%"></stop>
            <stop stop-color="#9BB48F" offset="30.262629%"></stop>
            <stop stop-color="#687E67" offset="86.2444%"></stop>
            <stop stop-color="#687E67" offset="100%"></stop>
        </linearGradient>
        <path d="M28.4178507,67.7713235 L1.8288091,52.427123 C0.83489111,51.8534903 0.222763841,50.7939422 0.222763841,49.6460458 L0.222763841,18.9349265 C0.222763841,17.7876612 0.83489111,16.728113 1.82817804,16.1532183 L28.4165886,0.797027568 C29.4111376,0.2233949 30.6353922,0.2233949 31.6293102,0.797027568 L58.2120412,16.1532183 C59.2053281,16.728113 59.8168243,17.7876612 59.8168243,18.9349265 L59.8168243,49.6473079 C59.8168243,50.7939422 59.2053281,51.8534903 58.2107791,52.427123 L31.6286791,67.7713235 C31.1320356,68.0578243 30.5773347,68.2017058 30.0232649,68.2017058 C29.468564,68.2017058 28.9144942,68.0578243 28.4178507,67.7713235" id="path-4"></path>
        <linearGradient x1="-9713.77%" y1="31.987%" x2="27.9292%" y2="31.987%" id="linearGradient-6">
            <stop stop-color="#9BB48F" offset="0%"></stop>
            <stop stop-color="#9BB48F" offset="9.19165%"></stop>
            <stop stop-color="#9BB48F" offset="30.262629%"></stop>
            <stop stop-color="#687E67" offset="86.2444%"></stop>
            <stop stop-color="#687E67" offset="100%"></stop>
        </linearGradient>
        <polygon id="path-7" points="0 378.635424 378.635424 378.635424 378.635424 0 0 0"></polygon>
        <linearGradient x1="68.1407211%" y1="82.520314%" x2="27.8327029%" y2="10.2813689%" id="linearGradient-9">
            <stop stop-color="#687E67" offset="0%"></stop>
            <stop stop-color="#687E67" offset="52.88042%"></stop>
            <stop stop-color="#83A178" offset="100%"></stop>
        </linearGradient>
        <linearGradient x1="43.2035882%" y1="44.7780851%" x2="159.268147%" y2="118.300172%" id="linearGradient-10">
            <stop stop-color="#687E67" offset="0%"></stop>
            <stop stop-color="#687E67" offset="13.7556%"></stop>
            <stop stop-color="#9BB48F" offset="69.737407%"></stop>
            <stop stop-color="#9BB48F" offset="90.8084%"></stop>
            <stop stop-color="#9BB48F" offset="100%"></stop>
        </linearGradient>
        <linearGradient x1="-4.53258439%" y1="49.9981197%" x2="101.719247%" y2="49.9981197%" id="linearGradient-11">
            <stop stop-color="#9BB48F" offset="0%"></stop>
            <stop stop-color="#9BB48F" offset="9.19165%"></stop>
            <stop stop-color="#9BB48F" offset="30.262629%"></stop>
            <stop stop-color="#687E67" offset="86.2444%"></stop>
            <stop stop-color="#687E67" offset="100%"></stop>
        </linearGradient>
        <path d="M28.4178507,67.7713235 L1.8288091,52.427123 C0.83489111,51.8534903 0.222763841,50.7939422 0.222763841,49.6460458 L0.222763841,18.9349265 C0.222763841,17.7876612 0.83489111,16.728113 1.82817804,16.1532183 L28.4165886,0.797027568 C29.4111376,0.2233949 30.6353922,0.2233949 31.6293102,0.797027568 L58.2120412,16.1532183 C59.2053281,16.728113 59.8168243,17.7876612 59.8168243,18.9349265 L59.8168243,49.6473079 C59.8168243,50.7939422 59.2053281,51.8534903 58.2107791,52.427123 L31.6286791,67.7713235 C31.1320356,68.0578243 30.5773347,68.2017058 30.0232649,68.2017058 C29.468564,68.2017058 28.9144942,68.0578243 28.4178507,67.7713235" id="path-12"></path>
        <linearGradient x1="-103.698492%" y1="49.9989911%" x2="100.585677%" y2="49.9989911%" id="linearGradient-14">
            <stop stop-color="#9BB48F" offset="0%"></stop>
            <stop stop-color="#9BB48F" offset="9.19165%"></stop>
            <stop stop-color="#9BB48F" offset="30.262629%"></stop>
            <stop stop-color="#687E67" offset="86.2444%"></stop>
            <stop stop-color="#687E67" offset="100%"></stop>
        </linearGradient>
        <path d="M28.4178507,67.7713235 L1.8288091,52.427123 C0.83489111,51.8534903 0.222763841,50.7939422 0.222763841,49.6460458 L0.222763841,18.9349265 C0.222763841,17.7876612 0.83489111,16.728113 1.82817804,16.1532183 L28.4165886,0.797027568 C29.4111376,0.2233949 30.6353922,0.2233949 31.6293102,0.797027568 L58.2120412,16.1532183 C59.2053281,16.728113 59.8168243,17.7876612 59.8168243,18.9349265 L59.8168243,49.6473079 C59.8168243,50.7939422 59.2053281,51.8534903 58.2107791,52.427123 L31.6286791,67.7713235 C31.1320356,68.0578243 30.5773347,68.2017058 30.0232649,68.2017058 C29.468564,68.2017058 28.9144942,68.0578243 28.4178507,67.7713235" id="path-15"></path>
        <linearGradient x1="130.347411%" y1="311.036321%" x2="4.35792774%" y2="-101.152817%" id="linearGradient-17">
            <stop stop-color="#687E67" offset="0%"></stop>
            <stop stop-color="#687E67" offset="52.88042%"></stop>
            <stop stop-color="#83A178" offset="100%"></stop>
        </linearGradient>
    </defs>
    <g id="Page-1" stroke="none" stroke-width="1" fill="none" fill-rule="evenodd">
        <g id="node-logo">
            <g transform="translate(-49.000000, -104.000000)" id="svg3355">
                <g>
                    <g id="g3363" transform="translate(189.559446, 190.489302) scale(-1, 1) rotate(-180.000000) translate(-189.559446, -190.489302) translate(0.059446, 0.989302)">
                        <g id="g3449" transform="translate(122.425454, 167.861705)">
                            <g id="g3451-Clipped" transform="translate(-0.000000, 0.000000)">
                                <mask id="mask-2" fill="white">
                                    <use xlink:href="#path-1"></use>
                                </mask>
                                <g id="path3455"></g>
                                <g id="g3451" mask="url(#mask-2)">
                                    <g transform="translate(27.135539, 73.202849)" id="g3457">
                                        <g>
                                            <g id="g3459" fill-rule="nonzero" fill="url(#linearGradient-3)">
                                                <g id="g3465">
                                                    <g id="g3467">
                                                        <polygon id="path3481" points="0.395674018 0.208880542 0.0296597749 -1.95399252e-13 0.518099472 -1.95399252e-13"></polygon>
                                                    </g>
                                                </g>
                                            </g>
                                        </g>
                                    </g>
                                </g>
                            </g>
                        </g>
                        <g id="g3509" transform="translate(122.425454, 167.861705)">
                            <g id="g3511-Clipped" transform="translate(-0.000000, 0.000000)">
                                <mask id="mask-5" fill="white">
                                    <use xlink:href="#path-4"></use>
                                </mask>
                                <g id="path3515"></g>
                                <g id="g3511" mask="url(#mask-5)">
                                    <g transform="translate(60.581668, 16.407535)" id="g3517">
                                        <g>
                                            <g id="g3519" fill-rule="nonzero" fill="url(#linearGradient-6)">
                                                <g id="g3525">
                                                    <g id="g3527">
                                                        <polygon id="path3541" points="0.176065472 0.239802435 0 0.540817598 0 0.137570871 0.176065472 0.239802435"></polygon>
                                                    </g>
                                                </g>
                                            </g>
                                        </g>
                                    </g>
                                </g>
                            </g>
                        </g>
                        <g id="g3590" transform="translate(-0.000000, 0.000000)">
                            <g id="g3365">
                                <g id="g3367-Clipped">
                                    <mask id="mask-8" fill="white">
                                        <use xlink:href="#path-7"></use>
                                    </mask>
                                    <g id="path3371"></g>
                                    <g id="g3367" mask="url(#mask-8)">
                                        <g transform="translate(49.222605, 104.124742)">
                                            <g id="g3373" transform="translate(107.250503, 0.035087)">
                                                <path d="M30.921893,0 C30.0005468,0 29.0842491,0.240433494 28.2777556,0.707417184 L19.8606901,5.68773513 C18.6042516,6.3907349 19.217641,6.64000322 19.6322467,6.78451574 C21.3089706,7.36635218 21.6484804,7.50076775 23.4381638,8.51551069 C23.6243262,8.62089755 23.8717014,8.58050977 24.0641744,8.4675502 L30.5306364,4.62881806 C30.7647593,4.4988199 31.0954342,4.4988199 31.3112564,4.62881806 L56.5220651,19.1797774 C56.756819,19.3135619 56.9070111,19.5836552 56.9070111,19.8619522 L56.9070111,48.9562982 C56.9070111,49.2409059 56.756819,49.5065817 56.5157545,49.6510942 L31.3156738,64.1894324 C31.082813,64.3257412 30.7735941,64.3257412 30.5388401,64.1894324 L5.34507007,49.6466768 C5.10021916,49.5065817 4.94497864,49.232071 4.94497864,48.9562982 L4.94497864,19.8619522 C4.94497864,19.5836552 5.10021916,19.3198725 5.34254584,19.1879812 L12.248856,15.1977949 C15.9960846,13.3241806 18.2906152,15.530994 18.2906152,17.7479045 L18.2906152,46.4730809 C18.2906152,46.8794829 18.6168728,47.1994299 19.0232748,47.1994299 L22.2195888,47.1994299 C22.6196802,47.1994299 22.9503552,46.8794829 22.9503552,46.4730809 L22.9503552,17.7479045 C22.9503552,12.7467616 20.2267044,9.87859822 15.4855578,9.87859822 C14.0284425,9.87859822 12.8811771,9.87859822 9.6785525,11.4568769 L3.067578,15.262794 C1.4343972,16.2068583 0.423440616,17.9719304 0.423440616,19.8619522 L0.423440616,48.9562982 C0.423440616,50.8463201 1.4343972,52.6113922 3.067578,53.5510391 L28.2777556,68.1190371 C29.8730729,69.0208204 31.9934312,69.0208204 33.5761273,68.1190371 L58.7850428,53.5510391 C60.4175925,52.6069748 61.4329665,50.8463201 61.4329665,48.9562982 L61.4329665,19.8619522 C61.4329665,17.9719304 60.4175925,16.2131689 58.7850428,15.262794 L33.5761273,0.707417184 C32.7702649,0.240433494 31.8558604,0 30.921893,0" id="path3375" fill="#689F63" fill-rule="nonzero"></path>
                                            </g>
                                            <g id="g3377" transform="translate(132.076492, 20.079289)">
                                                <path d="M13.8832989,0 C2.85112474,0 0.540186539,5.06361774 0.540186539,9.31127614 C0.540186539,9.71515393 0.864550885,10.0376251 1.26842867,10.0376251 L4.52784862,10.0376251 C4.89196968,10.0376251 5.19550908,9.7757356 5.25230439,9.42044936 C5.74453045,6.10234092 7.21174271,4.42751023 13.8832989,4.42751023 C19.1942918,4.42751023 21.4553763,5.62904664 21.4553763,8.44672526 C21.4553763,10.0710712 20.8142203,11.2770251 12.5605991,12.0854117 C5.66249277,12.7675865 1.3959026,14.2915941 1.3959026,19.8095743 C1.3959026,24.8965413 5.68331772,27.9300421 12.8723423,27.9300421 C20.9486359,27.9300421 24.9451328,25.1268778 25.4512422,19.1128852 C25.4701739,18.9052667 25.3969711,18.7064831 25.2587692,18.5518737 C25.1205672,18.4073612 24.9280942,18.3190129 24.7248932,18.3190129 L21.4528521,18.3190129 C21.1139734,18.3190129 20.8142203,18.5600774 20.7454349,18.8888592 C19.9603974,22.3805089 18.0514439,23.4962213 12.8723423,23.4962213 C7.07354078,23.4962213 6.39956973,21.4762013 6.39956973,19.9622906 C6.39956973,18.1284331 7.19470412,17.5951882 15.0242536,16.5589892 C22.7717655,15.5347804 26.4521018,14.0846067 26.4521018,8.63919826 C26.4521018,3.14646038 21.8718753,0 13.8832989,0" id="path3379" fill="#689F63" fill-rule="nonzero"></path>
                                            </g>
                                            <g id="g3381" transform="translate(172.240497, 45.246870)">
                                                <path d="M4.41741328,5.67953136 L5.26492557,5.67953136 C5.9578284,5.67953136 6.08782656,6.16734 6.08782656,6.45005445 C6.08782656,7.1965973 5.57288239,7.1965973 5.29016794,7.1965973 L4.41741328,7.1965973 L4.41741328,5.67953136 Z M3.38752493,8.07061407 L5.26492557,8.07061407 C5.90797474,8.07061407 7.16819964,8.07061407 7.16819964,6.62990628 C7.16819964,5.62715346 6.52515048,5.42205928 6.13831129,5.29332323 C6.88548519,5.24220745 6.93596991,4.75313669 7.03820148,4.05960281 C7.09057938,3.62290995 7.16819964,2.87636711 7.32091593,2.62015714 L6.16544683,2.62015714 C6.13831129,2.87636711 5.9578284,4.26532805 5.9578284,4.3416862 C5.88273237,4.65090513 5.77797657,4.80425247 5.39303056,4.80425247 L4.44265564,4.80425247 L4.44265564,2.62015714 L3.38752493,2.62015714 L3.38752493,8.07061407 Z M1.13906157,5.35832231 C1.13906157,3.09534459 2.96471537,1.26969079 5.20055755,1.26969079 C7.46353527,1.26969079 9.28855802,3.13383919 9.28855802,5.35832231 C9.28855802,7.62003791 7.43829291,9.4198183 5.20055755,9.4198183 C2.98995773,9.4198183 1.13906157,7.64654239 1.13906157,5.35832231 L1.13906157,5.35832231 Z M10.0717023,5.34443901 C10.0717023,2.67127292 7.88571377,0.485915461 5.21317873,0.485915461 C2.56462394,0.485915461 0.354024122,2.6453995 0.354024122,5.34443901 C0.354024122,8.09522537 2.61700184,10.2042247 5.21317873,10.2042247 C7.83586011,10.2042247 10.0717023,8.09522537 10.0717023,5.34443901 L10.0717023,5.34443901 Z" id="path3383" fill="#689F63" fill-rule="nonzero"></path>
                                            </g>
                                            <g id="g3385" transform="translate(0.153221, 70.320739)">
                                                <path d="M59.9506088,43.5430738 C59.9506088,44.7048535 59.3391126,45.7726054 58.3363598,46.3481312 L31.6078542,61.7301953 C31.1560159,61.9965023 30.6492755,62.1347042 30.1368555,62.1555291 L29.8604517,62.1555291 C29.3492939,62.1347042 28.8431845,61.9965023 28.3844046,61.7301953 L1.65589892,46.3481312 C0.659456697,45.7726054 0.0397567195,44.7048535 0.0397567195,43.5430738 L0.0984452103,2.12351367 C0.0984452103,1.54735677 0.397567195,1.01158764 0.904307605,0.728873192 C1.40032001,0.431644384 2.0137094,0.431644384 2.50782863,0.728873192 L18.3928468,9.8249582 C19.3974928,10.421309 20.008989,11.4745465 20.008989,12.6262293 L20.008989,31.9770237 C20.008989,33.1305996 20.6198541,34.1983515 21.6207138,34.7719842 L28.3844046,38.6675116 C28.8886208,38.9584299 29.4395353,39.1010492 30.00244,39.1010492 C30.5533545,39.1010492 31.1181523,38.9584299 31.6078542,38.6675116 L38.3696518,34.7719842 C39.3705114,34.1983515 39.9839008,33.1305996 39.9839008,31.9770237 L39.9839008,12.6262293 C39.9839008,11.4745465 40.6036008,10.4149984 41.6019362,9.8249582 L57.4825369,0.728873192 C57.9804425,0.431644384 58.6026667,0.431644384 59.0961549,0.728873192 C59.588381,1.01158764 59.8982309,1.54735677 59.8982309,2.12351367 L59.9506088,43.5430738 Z" id="path3387" fill="#333333"></path>
                                            </g>
                                            <g id="g3389" transform="translate(145.843613, 63.268023)">
                                                <path d="M40.3877786,29.0287159 C40.3877786,28.7409529 40.2338002,28.474015 39.9839008,28.3307646 L30.8032539,23.0387034 C30.5539856,22.895453 30.2466598,22.895453 29.9973915,23.0387034 L20.8167446,28.3307646 C20.5662141,28.474015 20.4128668,28.7409529 20.4128668,29.0287159 L20.4128668,39.6298767 C20.4128668,39.9176396 20.5662141,40.1845776 20.8161135,40.3290901 L29.9961294,45.6312482 C30.2466598,45.7757607 30.5539856,45.7757607 30.804516,45.6312482 L39.9845319,40.3290901 C40.2338002,40.1845776 40.3877786,39.9176396 40.3877786,39.6298767 L40.3877786,29.0287159 Z M42.8684717,107.534354 C42.3680419,107.81202 41.7578078,107.80634 41.2636885,107.516053 C40.7708314,107.226397 40.467292,106.696307 40.467292,106.123937 L40.467292,65.1050991 C40.467292,64.7018524 40.2514698,64.3282654 39.9031252,64.1263265 C39.5535185,63.9243876 39.1225052,63.9243876 38.7728985,64.1263265 L32.0779931,67.9833594 C31.0796577,68.5595163 29.8509858,68.5582542 28.8520193,67.9827283 L2.11341673,52.5514416 C1.11381921,51.9746536 0.498536642,50.9087949 0.498536642,49.755219 L0.498536642,18.886335 C0.498536642,17.732759 1.11381921,16.6675314 2.11215461,16.0894813 L28.8501262,0.646835516 C29.8497237,0.0700475535 31.0802888,0.0700475535 32.0798863,0.646835516 L58.8222753,16.0894813 C59.8206107,16.6675314 60.4365243,17.732759 60.4365243,18.886335 L60.4365243,95.8351501 C60.4365243,97.0051336 59.802941,98.0842445 58.7806254,98.6547219 L42.8684717,107.534354 Z" id="path3391" fill="#333333"></path>
                                            </g>
                                            <g id="g3393" transform="translate(219.060156, 64.049337)">
                                                <path d="M58.6884908,39.1256605 C59.6830398,39.7030795 60.2951671,40.7670451 60.2951671,41.9174657 L60.2951671,49.3980396 C60.2951671,50.5484602 59.6830398,51.6130568 58.6872286,52.1904758 L32.1202741,67.6154519 C31.1206766,68.1966573 29.8869562,68.1972884 28.8848344,67.6198694 L2.15569768,52.1885826 C1.15673122,51.6117947 0.541448657,50.546567 0.541448657,49.3929911 L0.541448657,18.5323108 C0.541448657,17.3711622 1.16430393,16.300255 2.17210522,15.7266223 L28.7352734,0.590671262 C29.714677,0.031552952 30.9155824,0.0252423616 31.9012966,0.573001609 L47.9680598,9.50311809 C48.4779555,9.78709466 48.7953782,10.3216017 48.7985335,10.9034381 C48.8023198,11.4859056 48.4924698,12.02483 47.9882537,12.3144861 L21.0893621,27.7533455 C20.5870391,28.0411085 20.2778201,28.5762465 20.2778201,29.1536656 L20.2778201,38.8252764 C20.2778201,39.4020644 20.585777,39.9359403 21.0862068,40.2237032 L29.457836,45.0500428 C29.9557416,45.3378057 30.5710242,45.3378057 31.0695608,45.0500428 L39.4449764,40.2237032 C39.9454062,39.9359403 40.252732,39.4020644 40.252732,38.8252764 L40.252732,31.2159665 C40.252732,30.6379164 40.5619509,30.1040405 41.0623807,29.8162775 C41.5628105,29.5272525 42.1793552,29.5297767 42.6785229,29.8194328 L58.6884908,39.1256605 Z" id="path3395" fill="#333333"></path>
                                            </g>
                                            <g id="g3397" transform="translate(243.489208, 91.368262)">
                                                <path d="M5.67953136,13.2522398 C5.87137331,13.3633062 6.10738939,13.3633062 6.29923134,13.2522398 L11.4297413,10.2925729 C11.6215833,10.1815066 11.7395913,9.97704343 11.7395913,9.75554171 L11.7395913,3.83115943 C11.7395913,3.60902665 11.6215833,3.40519458 11.4297413,3.29412819 L6.29923134,0.333830232 C6.10738939,0.222763841 5.87137331,0.222763841 5.67953136,0.333830232 L0.552807719,3.29412819 C0.360965771,3.40519458 0.242957731,3.60902665 0.242957731,3.83115943 L0.242957731,9.75554171 C0.242957731,9.97704343 0.360965771,10.1815066 0.552807719,10.2925729 L5.67953136,13.2522398 Z" id="path3399" fill="#689F63"></path>
                                            </g>
                                        </g>
                                    </g>
                                </g>
                            </g>
                            <g id="g3401" transform="translate(122.425454, 167.861705)" fill-rule="nonzero" fill="url(#linearGradient-9)">
                                <g id="g3403" transform="translate(0.000000, 0.000000)">
                                    <g id="g3409">
                                        <g id="g3411">
                                            <path d="M28.4178507,67.7713235 L1.8288091,52.427123 C0.834260051,51.8534903 0.222763841,50.7939422 0.222763841,49.6460458 L0.222763841,49.6460458 L0.222763841,18.9349265 C0.222763841,17.7876612 0.834260051,16.728113 1.82817804,16.1532183 L1.82817804,16.1532183 L28.4165886,0.797027568 C29.4111376,0.2233949 30.6353922,0.2233949 31.6293102,0.797027568 L31.6293102,0.797027568 L58.2120412,16.1532183 C59.2053281,16.728113 59.8168243,17.7876612 59.8168243,18.9349265 L59.8168243,18.9349265 L59.8168243,49.6473079 C59.8168243,50.7939422 59.2053281,51.8534903 58.2107791,52.427123 L58.2107791,52.427123 L31.6286791,67.7713235 C31.1320356,68.0578243 30.5773347,68.2017058 30.0232649,68.2017058 L30.0232649,68.2017058 C29.468564,68.2017058 28.9144942,68.0578243 28.4178507,67.7713235" id="path3421"></path>
                                        </g>
                                    </g>
                                </g>
                            </g>
                            <g id="g3423" transform="translate(123.056513, 167.861705)" fill-rule="nonzero" fill="url(#linearGradient-10)">
                                <g id="g3425" transform="translate(0.000000, 0.000000)">
                                    <g id="g3431">
                                        <g id="g3433">
                                            <path d="M0.252423616,16.984323 C0.505478291,16.653017 0.824163107,16.3690404 1.197119,16.1532183 L1.197119,16.1532183 L24.0054859,2.98049185 L27.8025681,0.797027568 C28.3705213,0.469507926 29.0186189,0.330674937 29.6553575,0.377373306 L29.6553575,0.377373306 C29.8680244,0.395042959 30.0800602,0.43416862 30.2870476,0.494119229 L30.2870476,0.494119229 L58.3250008,51.8351896 C58.1104407,52.0655261 57.8605413,52.2655718 57.57972,52.427123 L57.57972,52.427123 L40.1700632,62.4767382 L30.9698535,67.7713235 C30.7067018,67.9227777 30.4246185,68.0319509 30.1349624,68.1032606 L30.1349624,68.1032606 L0.252423616,16.984323 Z" id="path3447"></path>
                                        </g>
                                    </g>
                                </g>
                            </g>
                            <g id="g3483" transform="translate(124.318631, 167.861705)" fill-rule="nonzero" fill="url(#linearGradient-11)">
                                <g id="g3485" transform="translate(0.000000, 0.000000)">
                                    <g id="g3491">
                                        <g id="g3493">
                                            <path d="M27.8076166,68.1846672 C27.36272,68.1404931 26.9253961,68.0022911 26.5246736,67.7713235 L26.5246736,67.7713235 L0.0113590627,52.4712971 L28.5939162,0.400722491 C28.9902213,0.458148863 29.3783226,0.590671262 29.736133,0.797027568 L29.736133,0.797027568 L56.3188641,16.1532183 C57.1398719,16.6284057 57.7002523,17.4348992 57.8700072,18.3474105 L57.8700072,18.3474105 L28.7289628,68.1316582 C28.5137717,68.1745703 28.2947942,68.1960263 28.0758167,68.1960263 L28.0758167,68.1960263 C27.9862063,68.1960263 27.8965959,68.1922399 27.8076166,68.1846672" id="path3507"></path>
                                        </g>
                                    </g>
                                </g>
                            </g>
                            <g id="g3543" transform="translate(122.425454, 167.861705)">
                                <g id="g3545-Clipped" transform="translate(0.000000, 0.000000)">
                                    <mask id="mask-13" fill="white">
                                        <use xlink:href="#path-12"></use>
                                    </mask>
                                    <g id="path3549"></g>
                                    <g id="g3545" mask="url(#mask-13)">
                                        <g transform="translate(30.290834, -0.631059)" id="g3551">
                                            <g>
                                                <g id="g3553" fill-rule="nonzero" fill="url(#linearGradient-14)">
                                                    <g id="g3559">
                                                        <g id="g3561">
                                                            <path d="M27.9880995,16.7842773 L1.37192235,1.42871767 C1.00590811,1.21731289 0.606447738,1.08479049 0.19752148,1.02925729 L0.727611074,0.0637369631 L30.2908339,17.176165 L30.2908339,17.5794117 L29.5600676,18.8282775 C29.3410901,17.9776099 28.76304,17.2329603 27.9880995,16.7842773" id="path3575"></path>
                                                        </g>
                                                    </g>
                                                </g>
                                            </g>
                                        </g>
                                    </g>
                                </g>
                            </g>
                            <g id="g3577" transform="translate(122.425454, 167.861705)">
                                <g id="g3579-Clipped" transform="translate(0.000000, 0.000000)">
                                    <mask id="mask-16" fill="white">
                                        <use xlink:href="#path-15"></use>
                                    </mask>
                                    <g id="path3583"></g>
                                    <g id="g3579" mask="url(#mask-16)">
                                        <g transform="translate(30.290834, -0.631059)" id="g3585">
                                            <g>
                                                <g id="g3587" fill-rule="nonzero" fill="url(#linearGradient-17)">
                                                    <g id="g3593">
                                                        <g id="g3595">
                                                            <path d="M27.9880995,16.7842773 L1.37192235,1.42871767 C1.00590811,1.21731289 0.606447738,1.08479049 0.19752148,1.02925729 L0.727611074,0.0637369631 L30.2908339,17.176165 L30.2908339,17.5794117 L29.5600676,18.8282775 C29.3410901,17.9776099 28.76304,17.2329603 27.9880995,16.7842773" id="path3605"></path>
                                                        </g>
                                                    </g>
                                                </g>
                                            </g>
                                        </g>
                                    </g>
                                </g>
                            </g>
                        </g>
                    </g>
                </g>
            </g>
        </g>
    </g>
</svg>