<?xml version="1.0" encoding="UTF-8"?>
<svg width="280px" height="280px" viewBox="0 0 280 280" version="1.1" xmlns="http://www.w3.org/2000/svg" xmlns:xlink="http://www.w3.org/1999/xlink">
    <!-- Generator: Sketch 42 (36781) - http://www.bohemiancoding.com/sketch -->
    <title>react-native-icon</title>
    <desc>Created with Sketch.</desc>
    <defs></defs>
    <g id="Page-1" stroke="none" stroke-width="1" fill="none" fill-rule="evenodd">
        <g id="react-native-icon">
            <g id="icon-react-native">
                <g id="Group-12" transform="translate(13.548387, 81.290323)"></g>
                <path d="M149.032258,81.2982676 C221.569256,81.8090564 280,106.884133 280,137.741935 C280,168.599738 221.569256,193.674815 149.032258,194.185603 L149.032258,185.15361 C216.580598,184.693755 270.967742,163.642925 270.967742,137.741935 C270.967742,111.840946 216.580598,90.7901155 149.032258,90.3302612 L149.032258,81.2982676 Z" id="Combined-Shape" fill="#36383A"></path>
                <path d="M61.5140097,116.864424 C83.3240775,110.261267 110.031272,106.375899 138.880111,106.375899 C212.458692,106.375899 272.105917,131.650147 272.105917,162.827512 C272.105917,181.230484 251.323918,197.576719 219.161753,207.882391 L208.947165,201.984996 C241.62914,193.44305 263.073659,179.091475 263.073659,162.827512 C263.073659,136.638526 207.470313,115.408157 138.880111,115.408157 C114.227497,115.408157 91.252551,118.150737 71.9339736,122.880393 L61.5140097,116.864424 Z" id="Combined-Shape" fill="#36383A" transform="translate(166.809963, 157.129145) rotate(-300.000000) translate(-166.809963, -157.129145) "></path>
                <path d="M61.5162463,158.623621 C83.3229976,165.223457 110.023414,169.10668 138.864292,169.10668 C212.442873,169.10668 272.090098,143.832432 272.090098,112.655067 C272.090098,94.2554719 251.315722,77.9118575 219.163632,67.6058606 L208.95029,73.5025365 C241.621608,82.0450757 263.05784,96.3942469 263.05784,112.655067 C263.05784,138.844054 207.454494,160.074422 138.864292,160.074422 C114.219899,160.074422 91.2520553,157.333671 71.9374825,152.606918 L61.5162463,158.623621 Z" id="Combined-Shape" fill="#36383A" transform="translate(166.803172, 118.356270) rotate(-60.000000) translate(-166.803172, -118.356270) "></path>
                <path d="M149.032258,113.004831 C161.692097,114.149576 171.612903,124.825744 171.612903,137.826973 C171.612903,150.828202 161.692097,161.50437 149.032258,162.649115 L149.032258,113.004831 Z" id="Combined-Shape" fill="#36383A"></path>
                <path d="M0,5.99402094 C0,2.68361458 2.69443831,0 6.00286452,0 L138.513265,0 C141.828555,0 144.516129,2.68146835 144.516129,5.99402094 L144.516129,274.005979 C144.516129,277.316385 141.821691,280 138.513265,280 L6.00286452,280 C2.68757399,280 0,277.318532 0,274.005979 L0,5.99402094 Z M9.03225806,11.0272016 L9.03225806,268.972798 C9.03225806,270.070641 9.92724061,270.967742 11.0312575,270.967742 L133.484871,270.967742 C134.591573,270.967742 135.483871,270.074575 135.483871,268.972798 L135.483871,11.0272016 C135.483871,9.92935886 134.588888,9.03225806 133.484871,9.03225806 L11.0312575,9.03225806 C9.92455605,9.03225806 9.03225806,9.92542473 9.03225806,11.0272016 Z" id="Combined-Shape" fill="#36383A"></path>
                <path d="M18.0645161,36.1290323 L126.451613,36.1290323 L126.451613,225.806452 L18.0645161,225.806452 L18.0645161,36.1290323 Z M27.0967742,45.1612903 L27.0967742,216.774194 L117.419355,216.774194 L117.419355,45.1612903 L27.0967742,45.1612903 Z" id="Combined-Shape" fill="#36383A"></path>
                <rect id="Rectangle-10" fill="#36383A" x="45.1612903" y="18.0645161" width="54.1935484" height="9.03225806"></rect>
                <path d="M72.2580645,261.935484 C64.7754969,261.935484 58.7096774,255.869664 58.7096774,248.387097 C58.7096774,240.904529 64.7754969,234.83871 72.2580645,234.83871 C79.7406321,234.83871 85.8064516,240.904529 85.8064516,248.387097 C85.8064516,255.869664 79.7406321,261.935484 72.2580645,261.935484 Z M72.2580645,252.903226 C74.7522537,252.903226 76.7741935,250.881286 76.7741935,248.387097 C76.7741935,245.892908 74.7522537,243.870968 72.2580645,243.870968 C69.7638753,243.870968 67.7419355,245.892908 67.7419355,248.387097 C67.7419355,250.881286 69.7638753,252.903226 72.2580645,252.903226 Z" id="Combined-Shape" fill="#36383A"></path>
            </g>
        </g>
    </g>
</svg>