<?xml version="1.0" encoding="UTF-8"?>
<svg width="317px" height="100px" viewBox="0 0 317 100" version="1.1" xmlns="http://www.w3.org/2000/svg" xmlns:xlink="http://www.w3.org/1999/xlink">
    <!-- Generator: Sketch 47.1 (45422) - http://www.bohemiancoding.com/sketch -->
    <title>Group 3@2x</title>
    <desc>Created with Sketch.</desc>
    <defs></defs>
    <g id="Page-1" stroke="none" stroke-width="1" fill="none" fill-rule="evenodd">
        <g id="logotypes-vectors" transform="translate(-808.000000, -1854.000000)" fill="#000000">
            <g id="Group-3" transform="translate(808.000000, 1854.000000)">
                <g id="logo">
                    <rect id="Rectangle-path" x="51.6778523" y="51.2080537" width="6.97986577" height="17.2483221"></rect>
                    <path d="M72.3489933,69.3288591 L77.0469799,73.2885906 C70.4026846,81.0738255 60.5369128,86.0402685 49.5302013,86.0402685 C29.5973154,86.0402685 13.4899329,69.8657718 13.4899329,50 C13.4899329,31.6778523 26.9798658,16.2416107 45.1006711,14.2281879 L45.7718121,20.4026846 C31.0738255,22.2818792 19.7315436,34.8322148 19.7315436,50.0671141 C19.7315436,66.5771812 33.0872483,79.9328859 49.5973154,79.9328859 C58.6577181,79.8657718 66.8456376,75.7718121 72.3489933,69.3288591 L72.3489933,69.3288591 Z" id="Shape"></path>
                    <path d="M49.8657718,0.201342282 C22.4161074,0.201342282 0.201342282,22.4161074 0.201342282,49.8657718 C0.201342282,77.3154362 22.4161074,99.5302013 49.8657718,99.5302013 C77.3154362,99.5302013 99.5302013,77.3154362 99.5302013,49.8657718 C99.5973154,22.4832215 77.3154362,0.201342282 49.8657718,0.201342282 L49.8657718,0.201342282 Z M49.7315436,94.5637584 C25.1677852,94.5637584 5.23489933,74.6308725 5.23489933,50.0671141 C5.23489933,25.5033557 25.1677852,5.5704698 49.7315436,5.5704698 C74.295302,5.5704698 94.2281879,25.5033557 94.2281879,50.0671141 C94.2281879,74.6308725 74.295302,94.5637584 49.7315436,94.5637584 L49.7315436,94.5637584 Z" id="Shape"></path>
                    <path d="M85.5704698,50 L45.7718121,50 L45.7718121,43.8926174 C48.5234899,43.8926174 72.7516779,43.8255034 78.7919463,43.8255034 C76.5100671,33.3557047 68.7248322,24.7651007 58.590604,21.4765101 L58.6577181,42.6174497 L51.6107383,42.6174497 L51.6107383,20.1342282 C50.9395973,20.0671141 50.2013423,20.0671141 49.5302013,20.0671141 C48.7919463,20.0671141 48.1208054,20.0671141 47.3825503,20.1342282 L46.9798658,13.9597315 C47.7852349,13.8926174 48.6577181,13.8926174 49.4630872,13.8926174 C69.4630872,13.8926174 85.5704698,30.0671141 85.5704698,50 L85.5704698,50 Z" id="Shape"></path>
                </g>
                <path d="M136.144,39.44 L136.144,42 L120.72,42 L120.72,19.28 L135.856,19.28 L135.856,21.84 L123.6,21.84 L123.6,29.2 L134.256,29.2 L134.256,31.6 L123.6,31.6 L123.6,39.44 L136.144,39.44 Z M138.633905,42 L147.977905,19.28 L150.345905,19.28 L159.657905,42 L156.585905,42 L153.897905,35.344 L144.361905,35.344 L141.705905,42 L138.633905,42 Z M149.161905,22.608 L144.937905,33.104 L153.257905,33.104 L149.161905,22.608 Z M176.54781,24.048 C176.291808,23.7493318 175.950478,23.4613347 175.52381,23.184 C175.097141,22.9066653 174.617146,22.6560011 174.08381,22.432 C173.550474,22.2079989 172.969146,22.0266674 172.33981,21.888 C171.710473,21.7493326 171.05448,21.68 170.37181,21.68 C168.601134,21.68 167.305147,22.0106634 166.48381,22.672 C165.662472,23.3333366 165.25181,24.2399942 165.25181,25.392 C165.25181,26.0106698 165.369142,26.5226646 165.60381,26.928 C165.838477,27.3333354 166.206474,27.6799986 166.70781,27.968 C167.209145,28.2560014 167.833139,28.5066656 168.57981,28.72 C169.32648,28.9333344 170.211804,29.1573322 171.23581,29.392 C172.409149,29.6480013 173.470471,29.9413317 174.41981,30.272 C175.369148,30.6026683 176.179806,31.0133309 176.85181,31.504 C177.523813,31.9946691 178.035808,32.5919965 178.38781,33.296 C178.739811,34.0000035 178.91581,34.8639949 178.91581,35.888 C178.91581,36.9760054 178.702478,37.919996 178.27581,38.72 C177.849141,39.520004 177.267813,40.1813307 176.53181,40.704 C175.795806,41.2266693 174.926481,41.6106654 173.92381,41.856 C172.921138,42.1013346 171.833149,42.224 170.65981,42.224 C168.910467,42.224 167.251817,41.9520027 165.68381,41.408 C164.115802,40.8639973 162.691816,40.0693386 161.41181,39.024 L162.78781,36.592 C163.129145,36.9546685 163.571807,37.3173315 164.11581,37.68 C164.659812,38.0426685 165.278473,38.3679986 165.97181,38.656 C166.665146,38.9440014 167.411806,39.1786658 168.21181,39.36 C169.011814,39.5413342 169.849139,39.632 170.72381,39.632 C172.345151,39.632 173.603805,39.3440029 174.49981,38.768 C175.395814,38.1919971 175.84381,37.3280058 175.84381,36.176 C175.84381,35.5359968 175.699811,34.9973355 175.41181,34.56 C175.123808,34.1226645 174.702479,33.7440016 174.14781,33.424 C173.59314,33.1039984 172.905147,32.8213346 172.08381,32.576 C171.262472,32.3306654 170.329148,32.0800013 169.28381,31.824 C168.131804,31.5466653 167.118481,31.2480016 166.24381,30.928 C165.369139,30.6079984 164.638479,30.2240022 164.05181,29.776 C163.46514,29.3279978 163.022478,28.7840032 162.72381,28.144 C162.425141,27.5039968 162.27581,26.7360045 162.27581,25.84 C162.27581,24.7519946 162.478474,23.7920042 162.88381,22.96 C163.289145,22.1279958 163.854473,21.4240029 164.57981,20.848 C165.305147,20.2719971 166.169138,19.8400014 167.17181,19.552 C168.174481,19.2639986 169.26247,19.12 170.43581,19.12 C171.971817,19.12 173.35847,19.3546643 174.59581,19.824 C175.833149,20.2933357 176.931805,20.9226627 177.89181,21.712 L176.54781,24.048 Z M199.709714,21.84 L191.869714,21.84 L191.869714,42 L188.989714,42 L188.989714,21.84 L181.149714,21.84 L181.149714,19.28 L199.709714,19.28 L199.709714,21.84 Z M210.257524,30.48 C210.257524,29.1146598 210.497521,27.7546734 210.977524,26.4 C211.457526,25.0453266 212.161519,23.8293387 213.089524,22.752 C214.017529,21.6746613 215.153517,20.8053366 216.497524,20.144 C217.841531,19.4826634 219.366849,19.152 221.073524,19.152 C223.100201,19.152 224.83885,19.6106621 226.289524,20.528 C227.740198,21.4453379 228.81752,22.6399926 229.521524,24.112 L227.249524,25.584 C226.908189,24.858663 226.497526,24.2506691 226.017524,23.76 C225.537521,23.2693309 225.01486,22.8746682 224.449524,22.576 C223.884188,22.2773318 223.30286,22.0640006 222.705524,21.936 C222.108188,21.8079994 221.521527,21.744 220.945524,21.744 C219.686851,21.744 218.572195,22.0053307 217.601524,22.528 C216.630852,23.0506693 215.814861,23.7333291 215.153524,24.576 C214.492187,25.4186709 213.996192,26.3679947 213.665524,27.424 C213.334856,28.4800053 213.169524,29.541328 213.169524,30.608 C213.169524,31.8026726 213.366855,32.9386613 213.761524,34.016 C214.156193,35.0933387 214.70552,36.0479958 215.409524,36.88 C216.113527,37.7120042 216.945519,38.3733309 217.905524,38.864 C218.865529,39.3546691 219.910852,39.6 221.041524,39.6 C221.63886,39.6 222.252187,39.5253341 222.881524,39.376 C223.51086,39.2266659 224.113521,38.9866683 224.689524,38.656 C225.265527,38.3253317 225.804188,37.9093358 226.305524,37.408 C226.80686,36.9066642 227.217522,36.3040035 227.537524,35.6 L229.937524,36.912 C229.574855,37.7653376 229.068194,38.5173301 228.417524,39.168 C227.766854,39.8186699 227.030861,40.3679978 226.209524,40.816 C225.388186,41.2640022 224.518862,41.6053322 223.601524,41.84 C222.684186,42.0746678 221.788195,42.192 220.913524,42.192 C219.356183,42.192 217.926864,41.8506701 216.625524,41.168 C215.324184,40.4853299 214.198862,39.5946722 213.249524,38.496 C212.300186,37.3973278 211.564193,36.1493403 211.041524,34.752 C210.518855,33.3546597 210.257524,31.9306739 210.257524,30.48 L210.257524,30.48 Z M243.339429,42.16 C241.739421,42.16 240.283435,41.8346699 238.971429,41.184 C237.659422,40.5333301 236.5341,39.6693387 235.595429,38.592 C234.656757,37.5146613 233.931431,36.2826736 233.419429,34.896 C232.907426,33.5093264 232.651429,32.0906739 232.651429,30.64 C232.651429,29.1253258 232.923426,27.6746736 233.467429,26.288 C234.011431,24.9013264 234.763424,23.674672 235.723429,22.608 C236.683433,21.541328 237.819422,20.6933365 239.131429,20.064 C240.443435,19.4346635 241.867421,19.12 243.403429,19.12 C245.003437,19.12 246.454089,19.4559966 247.755429,20.128 C249.056768,20.8000034 250.176757,21.6799946 251.115429,22.768 C252.0541,23.8560054 252.779426,25.0879931 253.291429,26.464 C253.803431,27.8400069 254.059429,29.2426595 254.059429,30.672 C254.059429,32.1866742 253.787431,33.6373264 253.243429,35.024 C252.699426,36.4106736 251.952767,37.6319947 251.003429,38.688 C250.054091,39.7440053 248.923435,40.5866635 247.611429,41.216 C246.299422,41.8453365 244.875436,42.16 243.339429,42.16 L243.339429,42.16 Z M235.563429,30.64 C235.563429,31.7920058 235.750093,32.9066613 236.123429,33.984 C236.496764,35.0613387 237.024759,36.0159958 237.707429,36.848 C238.390099,37.6800042 239.211424,38.3413309 240.171429,38.832 C241.131433,39.3226691 242.198089,39.568 243.371429,39.568 C244.587435,39.568 245.675424,39.3066693 246.635429,38.784 C247.595433,38.2613307 248.411425,37.5786709 249.083429,36.736 C249.755432,35.8933291 250.267427,34.938672 250.619429,33.872 C250.97143,32.805328 251.147429,31.7280054 251.147429,30.64 C251.147429,29.4879942 250.960764,28.3733387 250.587429,27.296 C250.214093,26.2186613 249.680765,25.2693374 248.987429,24.448 C248.294092,23.6266626 247.472767,22.9706691 246.523429,22.48 C245.574091,21.9893309 244.523434,21.744 243.371429,21.744 C242.155423,21.744 241.067433,21.9999974 240.107429,22.512 C239.147424,23.0240026 238.331432,23.6959958 237.659429,24.528 C236.987425,25.3600042 236.470097,26.309328 236.107429,27.376 C235.74476,28.442672 235.563429,29.5306611 235.563429,30.64 L235.563429,30.64 Z M255.653333,42 L264.997333,19.28 L267.365333,19.28 L276.677333,42 L273.605333,42 L270.917333,35.344 L261.381333,35.344 L258.725333,42 L255.653333,42 Z M266.181333,22.608 L261.957333,33.104 L270.277333,33.104 L266.181333,22.608 Z M293.567238,24.048 C293.311237,23.7493318 292.969907,23.4613347 292.543238,23.184 C292.116569,22.9066653 291.636574,22.6560011 291.103238,22.432 C290.569902,22.2079989 289.988575,22.0266674 289.359238,21.888 C288.729902,21.7493326 288.073908,21.68 287.391238,21.68 C285.620563,21.68 284.324576,22.0106634 283.503238,22.672 C282.681901,23.3333366 282.271238,24.2399942 282.271238,25.392 C282.271238,26.0106698 282.38857,26.5226646 282.623238,26.928 C282.857906,27.3333354 283.225902,27.6799986 283.727238,27.968 C284.228574,28.2560014 284.852568,28.5066656 285.599238,28.72 C286.345909,28.9333344 287.231233,29.1573322 288.255238,29.392 C289.428577,29.6480013 290.4899,29.9413317 291.439238,30.272 C292.388576,30.6026683 293.199235,31.0133309 293.871238,31.504 C294.543242,31.9946691 295.055236,32.5919965 295.407238,33.296 C295.75924,34.0000035 295.935238,34.8639949 295.935238,35.888 C295.935238,36.9760054 295.721907,37.919996 295.295238,38.72 C294.868569,39.520004 294.287242,40.1813307 293.551238,40.704 C292.815235,41.2266693 291.94591,41.6106654 290.943238,41.856 C289.940567,42.1013346 288.852577,42.224 287.679238,42.224 C285.929896,42.224 284.271246,41.9520027 282.703238,41.408 C281.13523,40.8639973 279.711245,40.0693386 278.431238,39.024 L279.807238,36.592 C280.148573,36.9546685 280.591235,37.3173315 281.135238,37.68 C281.679241,38.0426685 282.297901,38.3679986 282.991238,38.656 C283.684575,38.9440014 284.431234,39.1786658 285.231238,39.36 C286.031242,39.5413342 286.868567,39.632 287.743238,39.632 C289.36458,39.632 290.623234,39.3440029 291.519238,38.768 C292.415243,38.1919971 292.863238,37.3280058 292.863238,36.176 C292.863238,35.5359968 292.71924,34.9973355 292.431238,34.56 C292.143237,34.1226645 291.721908,33.7440016 291.167238,33.424 C290.612569,33.1039984 289.924576,32.8213346 289.103238,32.576 C288.281901,32.3306654 287.348577,32.0800013 286.303238,31.824 C285.151232,31.5466653 284.137909,31.2480016 283.263238,30.928 C282.388567,30.6079984 281.657908,30.2240022 281.071238,29.776 C280.484569,29.3279978 280.041906,28.7840032 279.743238,28.144 C279.44457,27.5039968 279.295238,26.7360045 279.295238,25.84 C279.295238,24.7519946 279.497903,23.7920042 279.903238,22.96 C280.308574,22.1279958 280.873901,21.4240029 281.599238,20.848 C282.324575,20.2719971 283.188567,19.8400014 284.191238,19.552 C285.19391,19.2639986 286.281899,19.12 287.455238,19.12 C288.991246,19.12 290.377899,19.3546643 291.615238,19.824 C292.852578,20.2933357 293.951233,20.9226627 294.911238,21.712 L293.567238,24.048 Z M316.729143,21.84 L308.889143,21.84 L308.889143,42 L306.009143,42 L306.009143,21.84 L298.169143,21.84 L298.169143,19.28 L316.729143,19.28 L316.729143,21.84 Z M120.72,80 L120.72,57.28 L130.192,57.28 C131.194672,57.28 132.117329,57.4879979 132.96,57.904 C133.802671,58.3200021 134.527997,58.8746632 135.136,59.568 C135.744003,60.2613368 136.218665,61.0399957 136.56,61.904 C136.901335,62.7680043 137.072,63.6479955 137.072,64.544 C137.072,65.4826714 136.912002,66.389329 136.592,67.264 C136.271998,68.138671 135.81867,68.9173299 135.232,69.6 C134.64533,70.2826701 133.941337,70.8266646 133.12,71.232 C132.298663,71.6373354 131.386672,71.84 130.384,71.84 L123.6,71.84 L123.6,80 L120.72,80 Z M123.6,69.28 L130.224,69.28 C130.821336,69.28 131.359998,69.1573346 131.84,68.912 C132.320002,68.6666654 132.730665,68.3253355 133.072,67.888 C133.413335,67.4506645 133.679999,66.9440029 133.872,66.368 C134.064001,65.7919971 134.16,65.1840032 134.16,64.544 C134.16,63.8826634 134.048001,63.2640029 133.824,62.688 C133.599999,62.1119971 133.301335,61.6106688 132.928,61.184 C132.554665,60.7573312 132.117336,60.4266678 131.616,60.192 C131.114664,59.9573322 130.586669,59.84 130.032,59.84 L123.6,59.84 L123.6,69.28 Z M141.353905,80 L141.353905,57.28 L151.081905,57.28 C152.084576,57.28 153.007234,57.4879979 153.849905,57.904 C154.692576,58.3200021 155.417902,58.8746632 156.025905,59.568 C156.633908,60.2613368 157.10857,61.0399957 157.449905,61.904 C157.79124,62.7680043 157.961905,63.6479955 157.961905,64.544 C157.961905,65.3333373 157.849906,66.0959963 157.625905,66.832 C157.401904,67.5680037 157.081907,68.2346637 156.665905,68.832 C156.249903,69.4293363 155.748574,69.9413312 155.161905,70.368 C154.575235,70.7946688 153.919242,71.103999 153.193905,71.296 L158.697905,80 L155.433905,80 L150.249905,71.84 L144.233905,71.84 L144.233905,80 L141.353905,80 Z M144.233905,69.28 L151.113905,69.28 C151.711241,69.28 152.249902,69.1520013 152.729905,68.896 C153.209907,68.6399987 153.62057,68.2933355 153.961905,67.856 C154.30324,67.4186645 154.569904,66.9120029 154.761905,66.336 C154.953906,65.7599971 155.049905,65.1626698 155.049905,64.544 C155.049905,63.9039968 154.937906,63.3013362 154.713905,62.736 C154.489904,62.1706638 154.19124,61.6693355 153.817905,61.232 C153.44457,60.7946645 153.007241,60.4533346 152.505905,60.208 C152.004569,59.9626654 151.476574,59.84 150.921905,59.84 L144.233905,59.84 L144.233905,69.28 Z M172.48381,80.16 C170.883802,80.16 169.427816,79.8346699 168.11581,79.184 C166.803803,78.5333301 165.678481,77.6693387 164.73981,76.592 C163.801138,75.5146613 163.075812,74.2826736 162.56381,72.896 C162.051807,71.5093264 161.79581,70.0906739 161.79581,68.64 C161.79581,67.1253258 162.067807,65.6746736 162.61181,64.288 C163.155812,62.9013264 163.907805,61.674672 164.86781,60.608 C165.827814,59.541328 166.963803,58.6933365 168.27581,58.064 C169.587816,57.4346635 171.011802,57.12 172.54781,57.12 C174.147818,57.12 175.59847,57.4559966 176.89981,58.128 C178.201149,58.8000034 179.321138,59.6799946 180.25981,60.768 C181.198481,61.8560054 181.923807,63.0879931 182.43581,64.464 C182.947812,65.8400069 183.20381,67.2426595 183.20381,68.672 C183.20381,70.1866742 182.931812,71.6373264 182.38781,73.024 C181.843807,74.4106736 181.097148,75.6319947 180.14781,76.688 C179.198471,77.7440053 178.067816,78.5866635 176.75581,79.216 C175.443803,79.8453365 174.019817,80.16 172.48381,80.16 L172.48381,80.16 Z M164.70781,68.64 C164.70781,69.7920058 164.894474,70.9066613 165.26781,71.984 C165.641145,73.0613387 166.169139,74.0159958 166.85181,74.848 C167.53448,75.6800042 168.355805,76.3413309 169.31581,76.832 C170.275814,77.3226691 171.34247,77.568 172.51581,77.568 C173.731816,77.568 174.819805,77.3066693 175.77981,76.784 C176.739814,76.2613307 177.555806,75.5786709 178.22781,74.736 C178.899813,73.8933291 179.411808,72.938672 179.76381,71.872 C180.115811,70.805328 180.29181,69.7280054 180.29181,68.64 C180.29181,67.4879942 180.105145,66.3733387 179.73181,65.296 C179.358474,64.2186613 178.825146,63.2693374 178.13181,62.448 C177.438473,61.6266626 176.617148,60.9706691 175.66781,60.48 C174.718471,59.9893309 173.667815,59.744 172.51581,59.744 C171.299803,59.744 170.211814,59.9999974 169.25181,60.512 C168.291805,61.0240026 167.475813,61.6959958 166.80381,62.528 C166.131806,63.3600042 165.614478,64.309328 165.25181,65.376 C164.889141,66.442672 164.70781,67.5306611 164.70781,68.64 L164.70781,68.64 Z M187.997714,80 L187.997714,57.28 L195.869714,57.28 C197.683057,57.28 199.277707,57.5786637 200.653714,58.176 C202.029721,58.7733363 203.176376,59.5839949 204.093714,60.608 C205.011052,61.6320051 205.699045,62.8319931 206.157714,64.208 C206.616383,65.5840069 206.845714,67.0506589 206.845714,68.608 C206.845714,70.3360086 206.589717,71.8986597 206.077714,73.296 C205.565712,74.6933403 204.829719,75.887995 203.869714,76.88 C202.90971,77.872005 201.752388,78.6399973 200.397714,79.184 C199.043041,79.7280027 197.533723,80 195.869714,80 L187.997714,80 Z M203.933714,68.608 C203.933714,67.3279936 203.757716,66.1493387 203.405714,65.072 C203.053713,63.9946613 202.531051,63.0720038 201.837714,62.304 C201.144378,61.5359962 200.296386,60.9333355 199.293714,60.496 C198.291043,60.0586645 197.149721,59.84 195.869714,59.84 L190.877714,59.84 L190.877714,77.44 L195.869714,77.44 C197.171054,77.44 198.328376,77.2160022 199.341714,76.768 C200.355053,76.3199978 201.197711,75.7013373 201.869714,74.912 C202.541718,74.1226627 203.053713,73.1893387 203.405714,72.112 C203.757716,71.0346613 203.933714,69.866673 203.933714,68.608 L203.933714,68.608 Z M221.047619,77.568 C222.370292,77.568 223.468948,77.3120026 224.343619,76.8 C225.21829,76.2879974 225.91695,75.6213374 226.439619,74.8 C226.962288,73.9786626 227.330285,73.0400053 227.543619,71.984 C227.756954,70.9279947 227.863619,69.8560054 227.863619,68.768 L227.863619,57.28 L230.743619,57.28 L230.743619,68.768 C230.743619,70.3040077 230.567621,71.7599931 230.215619,73.136 C229.863617,74.5120069 229.303623,75.7226614 228.535619,76.768 C227.767615,77.8133386 226.770292,78.639997 225.543619,79.248 C224.316946,79.856003 222.828961,80.16 221.079619,80.16 C219.266277,80.16 217.740959,79.8400032 216.503619,79.2 C215.26628,78.5599968 214.268956,77.7120053 213.511619,76.656 C212.754282,75.5999947 212.210287,74.3840069 211.879619,73.008 C211.548951,71.6319931 211.383619,70.2186739 211.383619,68.768 L211.383619,57.28 L214.263619,57.28 L214.263619,68.768 C214.263619,69.8986723 214.375618,70.9919947 214.599619,72.048 C214.82362,73.1040053 215.19695,74.0373293 215.719619,74.848 C216.242288,75.6586707 216.935615,76.3146642 217.799619,76.816 C218.663623,77.3173358 219.746279,77.568 221.047619,77.568 L221.047619,77.568 Z M235.153524,68.48 C235.153524,67.1146598 235.393521,65.7546734 235.873524,64.4 C236.353526,63.0453266 237.057519,61.8293387 237.985524,60.752 C238.913529,59.6746613 240.049517,58.8053366 241.393524,58.144 C242.737531,57.4826634 244.262849,57.152 245.969524,57.152 C247.996201,57.152 249.73485,57.6106621 251.185524,58.528 C252.636198,59.4453379 253.71352,60.6399926 254.417524,62.112 L252.145524,63.584 C251.804189,62.858663 251.393526,62.2506691 250.913524,61.76 C250.433521,61.2693309 249.91086,60.8746682 249.345524,60.576 C248.780188,60.2773318 248.19886,60.0640006 247.601524,59.936 C247.004188,59.8079994 246.417527,59.744 245.841524,59.744 C244.582851,59.744 243.468195,60.0053307 242.497524,60.528 C241.526852,61.0506693 240.710861,61.7333291 240.049524,62.576 C239.388187,63.4186709 238.892192,64.3679947 238.561524,65.424 C238.230856,66.4800053 238.065524,67.541328 238.065524,68.608 C238.065524,69.8026726 238.262855,70.9386613 238.657524,72.016 C239.052193,73.0933387 239.60152,74.0479958 240.305524,74.88 C241.009527,75.7120042 241.841519,76.3733309 242.801524,76.864 C243.761529,77.3546691 244.806852,77.6 245.937524,77.6 C246.53486,77.6 247.148187,77.5253341 247.777524,77.376 C248.40686,77.2266659 249.009521,76.9866683 249.585524,76.656 C250.161527,76.3253317 250.700188,75.9093358 251.201524,75.408 C251.70286,74.9066642 252.113522,74.3040035 252.433524,73.6 L254.833524,74.912 C254.470855,75.7653376 253.964194,76.5173301 253.313524,77.168 C252.662854,77.8186699 251.926861,78.3679978 251.105524,78.816 C250.284186,79.2640022 249.414862,79.6053322 248.497524,79.84 C247.580186,80.0746678 246.684195,80.192 245.809524,80.192 C244.252183,80.192 242.822864,79.8506701 241.521524,79.168 C240.220184,78.4853299 239.094862,77.5946722 238.145524,76.496 C237.196186,75.3973278 236.460193,74.1493403 235.937524,72.752 C235.414855,71.3546597 235.153524,69.9306739 235.153524,68.48 L235.153524,68.48 Z M275.403429,59.84 L267.563429,59.84 L267.563429,80 L264.683429,80 L264.683429,59.84 L256.843429,59.84 L256.843429,57.28 L275.403429,57.28 L275.403429,59.84 Z" id="EAST-COAST-"></path>
            </g>
        </g>
    </g>
</svg>