<?xml version="1.0" encoding="UTF-8" standalone="no"?>
<svg width="18px" height="28px" viewBox="0 0 18 28" version="1.1" xmlns="http://www.w3.org/2000/svg" xmlns:xlink="http://www.w3.org/1999/xlink">
    <!-- Generator: Sketch 3.8.3 (29802) - http://www.bohemiancoding.com/sketch -->
    <title>phone</title>
    <desc>Created with Sketch.</desc>
    <defs></defs>
    <g id="Symbols" stroke="none" stroke-width="1" fill="none" fill-rule="evenodd">
        <g id="footer-global" transform="translate(-68.000000, -183.000000)" fill="#FFFFFF">
            <g id="Contact">
                <path d="M83.401,183 L70.601,183 C69.165,183 68.001,184.165 68.001,185.6 L68.001,208.401 C68.001,209.836 69.165,211 70.601,211 L83.401,211 C84.837,211 86.001,209.836 86.001,208.401 L86.001,185.6 C86.001,184.165 84.837,183 83.401,183 L83.401,183 Z M74.001,185 L80.001,185 L80.001,186 L74.001,186 L74.001,185 L74.001,185 Z M77.002,209.5 C76.172,209.499 75.5,208.829 75.5,207.999 C75.5,207.171 76.17,206.5 76.996,206.5 L77,206.5 L77.004,206.5 C77.832,206.5 78.5,207.171 78.5,207.999 C78.5,208.827 77.83,209.499 77.002,209.5 L77.002,209.5 Z M84.001,205 L70.001,205 L70.001,188 L84.001,188 L84.001,205 L84.001,205 Z" id="phone"></path>
            </g>
        </g>
    </g>
</svg>