<svg width="582" height="484" viewBox="0 0 582 484" xmlns="http://www.w3.org/2000/svg"><title>large-monitor</title><g fill="none" fill-rule="evenodd"><path d="M401 484v-9c0-4.97-4.102-9-9.173-9H190.173c-5.066 0-9.173 4.04-9.173 9v9h220z" fill="#E6E6E6"/><path fill="#B3B3B3" d="M213.158 422h131.684L328 466H204z"/><path fill="#CCC" d="M345.158 422h23.684L378 466h-50z"/><path d="M0 368.004h582v38.992c0 8.287-6.712 15.004-15.008 15.004H15.008C6.72 422 0 415.286 0 406.996v-38.992z" fill="#D8D8D8"/><path d="M12.459 0h557.082C576.421 0 582 5.595 582 12.484V368H0V12.484C0 5.589 5.574 0 12.459 0z" fill="#363B3A"/></g></svg>