<?xml version="1.0" encoding="UTF-8" standalone="no"?>
<svg width="286px" height="267px" viewBox="0 0 286 267" version="1.1" xmlns="http://www.w3.org/2000/svg" xmlns:xlink="http://www.w3.org/1999/xlink">
    <!-- Generator: Sketch 3.8.3 (29802) - http://www.bohemiancoding.com/sketch -->
    <title>left-quotes</title>
    <desc>Created with Sketch.</desc>
    <defs></defs>
    <g id="Page-1" stroke="none" stroke-width="1" fill="none" fill-rule="evenodd">
        <g id="images-for-export" transform="translate(-2416.000000, -1245.000000)" fill="#F7D200">
            <path d="M2548.41154,1511.16056 C2533.25324,1511.16056 2517.64934,1509.37726 2501.59938,1505.8106 C2485.54941,1502.24394 2471.28299,1496.67112 2458.79969,1489.09197 C2446.31638,1481.51282 2436.06239,1471.25883 2428.03741,1458.3297 C2420.01243,1445.40056 2416,1429.57375 2416,1410.84879 L2416,1245 L2514.97428,1245 L2514.97428,1392.12393 C2514.97428,1405.4989 2518.98671,1414.1925 2527.01169,1418.20499 C2535.03667,1422.21748 2542.16988,1424.22369 2548.41154,1424.22369 L2548.41154,1511.16056 Z M2702,1511.16056 C2686.8417,1511.16056 2671.2378,1509.37726 2655.18784,1505.8106 C2639.13788,1502.24394 2624.87146,1496.67112 2612.38815,1489.09197 C2599.90485,1481.51282 2589.65086,1471.25883 2581.62588,1458.3297 C2573.6009,1445.40056 2569.58846,1429.57375 2569.58846,1410.84879 L2569.58846,1245 L2668.56274,1245 L2668.56274,1392.12393 C2668.56274,1405.4989 2672.57517,1414.1925 2680.60016,1418.20499 C2688.62514,1422.21748 2695.75835,1424.22369 2702,1424.22369 L2702,1511.16056 Z" id="left-quotes"></path>
        </g>
    </g>
</svg>