<svg width="286" height="267" viewBox="0 0 286 267" xmlns="http://www.w3.org/2000/svg"><title>left-quotes</title><path d="M132.412 266.16c-15.159 0-30.763-1.783-46.813-5.35-16.05-3.566-30.316-9.139-42.8-16.718-12.483-7.58-22.737-17.833-30.762-30.762C4.012 200.4 0 184.574 0 165.849V0h98.974v147.124c0 13.375 4.013 22.069 12.038 26.081 8.025 4.012 15.158 6.019 21.4 6.019v86.937zm153.588 0c-15.158 0-30.762-1.783-46.812-5.35-16.05-3.566-30.317-9.139-42.8-16.718-12.483-7.58-22.737-17.833-30.762-30.762-8.025-12.93-12.038-28.756-12.038-47.481V0h98.975v147.124c0 13.375 4.012 22.069 12.037 26.081 8.025 4.012 15.158 6.019 21.4 6.019v86.937z" fill="#F7D200" fill-rule="evenodd"/></svg>