<svg width="124" height="100" viewBox="0 0 124 100" xmlns="http://www.w3.org/2000/svg"><title>icon-prototyping</title><g fill="#36383A" fill-rule="evenodd"><path d="M8 20h108v72H8V20zm4 4h100v64H12V24z"/><path d="M0 5.993C0 2.683 2.69 0 6.002 0h111.996A6 6 0 0 1 124 5.993v88.014c0 3.31-2.69 5.993-6.002 5.993H6.002A6 6 0 0 1 0 94.007V5.993zm4 .014C4 4.9 4.9 4 6.001 4H118c1.105 0 2.001.896 2.001 2.007v87.986c0 1.108-.9 2.007-2.001 2.007H6A2.002 2.002 0 0 1 4 93.993V6.007z"/><path d="M16 28h50v10H16zM16 68h60v16H16V68zm4 4h52v8H20v-8zM16 40h90v4H16zM16 46h80v4H16zM16 52h84v4H16z"/><path d="M22 74h48v4H22zM14 18a6 6 0 1 0 0-12 6 6 0 0 0 0 12zm0-4a2 2 0 1 0 0-4 2 2 0 0 0 0 4zM28 18a6 6 0 1 0 0-12 6 6 0 0 0 0 12zm0-4a2 2 0 1 0 0-4 2 2 0 0 0 0 4zM42 18a6 6 0 1 0 0-12 6 6 0 0 0 0 12zm0-4a2 2 0 1 0 0-4 2 2 0 0 0 0 4z"/></g></svg>