<svg width="124" height="124" viewBox="0 0 124 124" xmlns="http://www.w3.org/2000/svg"><title>icon-ux-design</title><g fill="#36383A" fill-rule="evenodd"><path d="M0 0h40v36H0V0zm4 4h32v28H4V4zM0 44h40v36H0V44zm4 4h32v28H4V48zM0 88h40v36H0V88zm4 4h32v28H4V92zM50 0h48v8H50zM50 10h74v4H50zM50 16h74v4H50zM50 22h40v4H50zM50 44h32v8H50zM50 54h74v4H50zM50 60h74v4H50zM50 66h36v4H50zM50 88h40v8H50zM50 98h74v4H50zM50 104h74v4H50zM50 110h56v4H50z"/><path d="M20 106a6 6 0 1 0 0-12 6 6 0 0 0 0 12zm0-4a2 2 0 1 0 0-4 2 2 0 0 0 0 4zM33 124c0-8.837-5.82-16-13-16s-13 7.163-13 16h4c0-6.627 4.03-12 9-12s9 5.373 9 12h4zM20 62a6 6 0 1 0 0-12 6 6 0 0 0 0 12zm0-4a2 2 0 1 0 0-4 2 2 0 0 0 0 4zM33 80c0-8.837-5.82-16-13-16S7 71.163 7 80h4c0-6.627 4.03-12 9-12s9 5.373 9 12h4zM20 18a6 6 0 1 0 0-12 6 6 0 0 0 0 12zm0-4a2 2 0 1 0 0-4 2 2 0 0 0 0 4zM33 36c0-8.837-5.82-16-13-16S7 27.163 7 36h4c0-6.627 4.03-12 9-12s9 5.373 9 12h4z"/></g></svg>