<svg width="124" height="124" viewBox="0 0 124 124" xmlns="http://www.w3.org/2000/svg"><title>icon-ui-design</title><g fill="#36383A" fill-rule="evenodd"><path d="M8 29h4v24H8zM8 71h4v24H8z"/><path d="M115.076 72C110.993 93.805 93.805 110.993 72 115.076V111c19.591-3.977 35.023-19.409 39-39h4.076zm0-20C110.993 30.195 93.805 13.007 72 8.924V13c19.591 3.977 35.023 19.409 39 39h4.076zM52 115.076C30.195 110.993 13.007 93.805 8.924 72H13c3.977 19.591 19.409 35.023 39 39v4.076zM8.924 52C13.007 30.195 30.195 13.007 52 8.924V13C32.409 16.977 16.977 32.41 13 52H8.924zM52 0h20v20H52V0zm4 4h12v12H56V4zM52 104h20v20H52v-20zm4 4h12v12H56v-12zM104 52h20v20h-20V52zm4 4h12v12h-12V56zM0 52h20v20H0V52zm4 4h12v12H4V56zM2 22c0-4.418 3.59-8 8-8 4.418 0 8 3.59 8 8 0 4.418-3.59 8-8 8-4.418 0-8-3.59-8-8zm4 0c0-2.21 1.795-4 4-4 2.21 0 4 1.795 4 4 0 2.21-1.795 4-4 4-2.21 0-4-1.795-4-4zM2 102c0-4.418 3.59-8 8-8 4.418 0 8 3.59 8 8 0 4.418-3.59 8-8 8-4.418 0-8-3.59-8-8zm4 0c0-2.21 1.795-4 4-4 2.21 0 4 1.795 4 4 0 2.21-1.795 4-4 4-2.21 0-4-1.795-4-4z"/></g></svg>