<svg width="124" height="124" viewBox="0 0 124 124" xmlns="http://www.w3.org/2000/svg"><title>icon-react-native</title><g fill="none" fill-rule="evenodd"><path d="M66 85.996c32.124-.226 58-11.33 58-24.996 0-13.666-25.876-24.77-58-24.996v4c29.914.203 54 9.526 54 20.996 0 11.47-24.086 20.793-54 20.997v4z" fill="#36383A"/><path d="M66 100.902c11.074 10.053 21.945 14.404 29.003 10.33 11.957-6.904 8.443-35.377-7.85-63.596C80.767 36.57 73.363 27.189 66 20.286v5.329c6.092 6.362 12.23 14.566 17.69 24.02 15.187 26.307 19.357 52.333 9.313 58.132-6.238 3.601-16.49-1.445-27.003-12.088v5.223z" fill="#36383A"/><path d="M66 21.096c11.072-10.05 21.94-14.398 28.997-10.324 11.957 6.904 8.443 35.377-7.85 63.596C80.762 85.429 73.36 94.809 66 101.71v-5.329c6.09-6.36 12.227-14.562 17.683-24.014 15.188-26.306 19.358-52.333 9.314-58.132C86.761 10.636 76.511 15.68 66 26.32v-5.223z" fill="#36383A"/><path d="M66 72.03c5.606-.507 10-5.235 10-10.992 0-5.758-4.394-10.486-10-10.993V72.03zM0 6.002C0 2.687 2.689 0 5.992 0h52.016C61.318 0 64 2.69 64 6.002v111.996c0 3.315-2.689 6.002-5.992 6.002H5.992C2.682 124 0 121.31 0 117.998V6.002zm4 0C4 4.895 4.902 4 5.993 4h52.014A2 2 0 0 1 60 6.001V118A2.004 2.004 0 0 1 58.007 120H5.993A2 2 0 0 1 4 117.999V6z" fill="#36383A"/><path d="M8 16h48v84H8V16zm4 4h40v76H12V20zM20 8h24v4H20zM32 116a6 6 0 1 0 0-12 6 6 0 0 0 0 12zm0-4a2 2 0 1 0 0-4 2 2 0 0 0 0 4z" fill="#36383A"/></g></svg>