<svg width="124" height="112" viewBox="0 0 124 112" xmlns="http://www.w3.org/2000/svg"><title>icon-react-logo</title><g fill="#36383A" fill-rule="evenodd"><ellipse cx="62" cy="56" rx="12" ry="12"/><path d="M62 83c34.242 0 62-12.088 62-27S96.242 29 62 29C27.758 29 0 41.088 0 56s27.758 27 62 27zm0-4c32.033 0 58-10.297 58-23S94.033 33 62 33 4 43.297 4 56s25.967 23 58 23z"/><path d="M85.383 42.5C68.262 12.846 43.913-5.15 31 2.306c-12.914 7.456-9.504 37.54 7.617 67.194C55.738 99.154 80.087 117.15 93 109.694c12.914-7.456 9.504-37.54-7.617-67.194zm-3.464 2C65.902 16.759 44-.58 33 5.77c-11 6.352-6.935 33.989 9.081 61.73C58.098 95.241 80 112.58 91 106.23c11-6.352 6.935-33.989-9.081-61.73z"/><path d="M38.617 42.5c-17.12 29.654-20.53 59.738-7.617 67.194 12.914 7.455 37.262-10.54 54.383-40.194C102.503 39.846 105.913 9.762 93 2.306 80.086-5.149 55.738 12.846 38.617 42.5zm3.464 2C26.065 72.241 22 99.878 33 106.23c11 6.35 32.902-10.989 48.919-38.73C97.935 39.759 102 12.122 91 5.77 80-.58 58.098 16.76 42.081 44.5z"/></g></svg>