<svg width="124" height="124" viewBox="0 0 124 124" xmlns="http://www.w3.org/2000/svg"><title>icon-strategy</title><g fill="#36383A" fill-rule="evenodd"><path d="M15 30c8.284 0 15-6.716 15-15 0-8.284-6.716-15-15-15C6.716 0 0 6.716 0 15c0 8.284 6.716 15 15 15zm0-4c6.075 0 11-4.925 11-11S21.075 4 15 4 4 8.925 4 15s4.925 11 11 11z"/><circle cx="11" cy="12" r="2"/><circle cx="19" cy="12" r="2"/><path d="M109 124c8.284 0 15-6.716 15-15 0-8.284-6.716-15-15-15-8.284 0-15 6.716-15 15 0 8.284 6.716 15 15 15zm0-4c6.075 0 11-4.925 11-11s-4.925-11-11-11-11 4.925-11 11 4.925 11 11 11z"/><path d="M103.343 112.657l1.414-1.414a6 6 0 0 0 8.486 0l1.414 1.414a8 8 0 0 1-11.314 0zM9.343 19.657l1.414 1.414a6 6 0 0 1 8.486 0l1.414-1.414a8 8 0 0 0-11.314 0zM107 87h-.007C106.458 47.696 74.431 16 35 16v-4c41.575 0 75.353 33.384 75.99 74.807A2 2 0 1 1 107 87z"/><path d="M109 89c.513 0 1.027-.199 1.42-.592l5.645-5.645a2 2 0 1 0-2.828-2.828L109 84.172l-4.237-4.237a2 2 0 1 0-2.828 2.828l5.645 5.645.003.003a2.006 2.006 0 0 1 .009-2.831L109 84.172V89zM17.828 60l4.25-4.25a2 2 0 0 0-.007-2.821 1.99 1.99 0 0 0-2.822-.007L15 57.172l-4.25-4.25a2 2 0 0 0-2.821.007 1.99 1.99 0 0 0-.007 2.822L12.172 60l-4.25 4.25a2 2 0 0 0 .007 2.821 1.99 1.99 0 0 0 2.822.007L15 62.828l4.25 4.25a2 2 0 0 0 2.821-.007 1.99 1.99 0 0 0 .007-2.822L17.828 60z"/><circle cx="105" cy="106" r="2"/><circle cx="113" cy="106" r="2"/><path d="M13 34h4v15h-4z"/></g></svg>