<svg width="124" height="100" viewBox="0 0 124 100" xmlns="http://www.w3.org/2000/svg"><title>icon-prototyping</title><g fill="#36383A" fill-rule="evenodd"><path d="M8 20h108v72H8V20zm4 4h100v64H12V24z"/><path d="M0 5.993A6 6 0 0 1 6.002 0h111.996A6 6 0 0 1 124 5.993v88.014a6 6 0 0 1-6.002 5.993H6.002A6 6 0 0 1 0 94.007V5.993zm4 .014C4 4.9 4.9 4 6.001 4H118c1.105 0 2.001.896 2.001 2.007v87.986c0 1.108-.9 2.007-2.001 2.007H6a2.002 2.002 0 0 1-2-2.007V6.007z"/><path d="M16 28h50v10H16zm0 40h60v16H16V68zm4 4h52v8H20v-8zm-4-32h90v4H16zm0 6h80v4H16zm0 6h84v4H16z"/><path d="M22 74h48v4H22zm-8-56a6 6 0 1 0 0-12 6 6 0 0 0 0 12zm0-4a2 2 0 1 0 0-4 2 2 0 0 0 0 4zm14 4a6 6 0 1 0 0-12 6 6 0 0 0 0 12zm0-4a2 2 0 1 0 0-4 2 2 0 0 0 0 4zm14 4a6 6 0 1 0 0-12 6 6 0 0 0 0 12zm0-4a2 2 0 1 0 0-4 2 2 0 0 0 0 4z"/></g></svg>