<?xml version="1.0" encoding="UTF-8" standalone="no"?>
<svg width="124px" height="112px" viewBox="0 0 124 112" version="1.1" xmlns="http://www.w3.org/2000/svg" xmlns:xlink="http://www.w3.org/1999/xlink">
    <!-- Generator: Sketch 39.1 (31720) - http://www.bohemiancoding.com/sketch -->
    <title>icon-react-logo</title>
    <desc>Created with Sketch.</desc>
    <defs></defs>
    <g id="Page-1" stroke="none" stroke-width="1" fill="none" fill-rule="evenodd">
        <g id="images-for-export" transform="translate(-4165.000000, -2375.000000)" fill="#36383A">
            <g id="icon-react-logo" transform="translate(4165.000000, 2375.000000)">
                <ellipse id="Oval-13" cx="62" cy="56" rx="12" ry="12"></ellipse>
                <path d="M62,83 C96.2416545,83 124,70.9116882 124,56 C124,41.0883118 96.2416545,29 62,29 C27.7583455,29 0,41.0883118 0,56 C0,70.9116882 27.7583455,83 62,83 L62,83 Z M62,79 C94.0325155,79 120,68.7025492 120,56 C120,43.2974508 94.0325155,33 62,33 C29.9674845,33 4,43.2974508 4,56 C4,68.7025492 29.9674845,79 62,79 L62,79 Z" id="Combined-Shape"></path>
                <path d="M85.3826859,42.5 C68.2618587,12.8458573 43.9139008,-5.14941916 31,2.30642497 C18.0860992,9.76226909 21.4964869,39.8458573 38.6173141,69.5 C55.7381413,99.1541427 80.0860992,117.149419 93,109.693575 C105.913901,102.237731 102.503513,72.1541427 85.3826859,42.5 L85.3826859,42.5 Z M81.9185843,44.5 C65.9023265,16.7590278 44.0007303,-0.580748042 33,5.77052658 C21.9992697,12.1218012 26.065158,39.7590278 42.0814157,67.5 C58.0976735,95.2409722 79.9992697,112.580748 91,106.229473 C102.00073,99.8781988 97.934842,72.2409722 81.9185843,44.5 L81.9185843,44.5 Z" id="Combined-Shape"></path>
                <path d="M38.6173141,42.5 C21.4964869,72.1541427 18.0860992,102.237731 31,109.693575 C43.9139008,117.149419 68.2618587,99.1541427 85.3826859,69.5 C102.503513,39.8458573 105.913901,9.76226909 93,2.30642497 C80.0860992,-5.14941916 55.7381413,12.8458573 38.6173141,42.5 L38.6173141,42.5 Z M42.0814157,44.5 C26.065158,72.2409722 21.9992697,99.8781988 33,106.229473 C44.0007303,112.580748 65.9023265,95.2409722 81.9185843,67.5 C97.934842,39.7590278 102.00073,12.1218012 91,5.77052658 C79.9992697,-0.580748042 58.0976735,16.7590278 42.0814157,44.5 L42.0814157,44.5 Z" id="Combined-Shape"></path>
            </g>
        </g>
    </g>
</svg>