<svg width="125" height="114" viewBox="0 0 125 114" xmlns="http://www.w3.org/2000/svg"><title>icon-research</title><g fill="#36383A" fill-rule="evenodd"><path d="M44 48c13.255 0 24-10.745 24-24S57.255 0 44 0 20 10.745 20 24s10.745 24 24 24zm0-4c11.046 0 20-8.954 20-20S55.046 4 44 4s-20 8.954-20 20 8.954 20 20 20z"/><path d="M61.157 13.716C50.727 16.326 43 25.76 43 37c0 2.435.363 4.785 1.037 7a19.908 19.908 0 0 0 11.445-3.622A12.004 12.004 0 0 1 55 37c0-5.574 3.8-10.261 8.952-11.61.032-.459.048-.923.048-1.39 0-3.76-1.038-7.279-2.843-10.284zM24.456 35l9.9 9.9L11.72 67.533a3.991 3.991 0 0 1-5.645-.002l-4.252-4.253a3.99 3.99 0 0 1-.003-5.645L24.456 35zm2.828 2.828l4.243 4.243L8.899 64.698l-4.242-4.242 22.627-22.628zM66.634 16h38.36C116.042 16 125 24.952 125 36c0 11.046-8.963 20-20.007 20H90l4-4h10.999C113.833 52 121 44.837 121 36c0-8.838-7.164-16-16.001-16h-37.33a23.83 23.83 0 0 0-1.035-4zM48.668 47.546C52.292 52.662 58.26 56 65.007 56H85v-4H65.001a15.967 15.967 0 0 1-12.212-5.66c-1.32.52-2.698.926-4.12 1.206zM85 56h-4v16l16-16h-7l-5 5v-5z"/><path d="M8.015 68.964C8.525 85.09 21.755 98 38.003 98H61v2.5V98h-4v16l16-16h-7l-5 5v-9H37.995C23.638 94 12 82.363 12 68c0-.233.003-.464.01-.695l-.537.536a3.997 3.997 0 0 1-3.458 1.123zm97.486-12.97A29.9 29.9 0 0 1 108 68c0 16.569-13.435 30-30.003 30H66l4-4h8.005C92.36 94 104 82.36 104 68c0-4.329-1.057-8.41-2.928-12h3.921c.17 0 .34-.002.508-.006zM93 42h16v4H93zM81 26h28v4H81zM81 34h28v4H81z"/><path d="M24 74h16v4H24zM24 66h28v4H24zM24 58h28v4H24z"/></g></svg>