<svg width="280" height="150" viewBox="0 0 280 150" xmlns="http://www.w3.org/2000/svg" xmlns:xlink="http://www.w3.org/1999/xlink"><title>services-mvp-definition-and-creation</title><defs><ellipse id="a" cx="30" cy="46" rx="10" ry="6"/><mask id="v" x="0" y="0" width="20" height="12" fill="#fff"><use xlink:href="#a"/></mask><ellipse id="b" cx="24" cy="113" rx="10" ry="5"/><mask id="w" x="0" y="0" width="20" height="10" fill="#fff"><use xlink:href="#b"/></mask><ellipse id="c" cx="20" cy="23" rx="4" ry="3"/><mask id="x" x="0" y="0" width="8" height="6" fill="#fff"><use xlink:href="#c"/></mask><ellipse id="d" cx="36" cy="27" rx="6" ry="3"/><mask id="y" x="0" y="0" width="12" height="6" fill="#fff"><use xlink:href="#d"/></mask><ellipse id="e" cx="20" cy="78" rx="6" ry="4"/><mask id="z" x="0" y="0" width="12" height="8" fill="#fff"><use xlink:href="#e"/></mask><ellipse id="f" cx="74" cy="17" rx="6" ry="3"/><mask id="A" x="0" y="0" width="12" height="6" fill="#fff"><use xlink:href="#f"/></mask><ellipse id="g" cx="80" cy="32" rx="8" ry="6"/><mask id="B" x="0" y="0" width="16" height="12" fill="#fff"><use xlink:href="#g"/></mask><ellipse id="h" cx="62" cy="105" rx="12" ry="5"/><mask id="C" x="0" y="0" width="24" height="10" fill="#fff"><use xlink:href="#h"/></mask><ellipse id="i" cx="47" cy="126" rx="9" ry="4"/><mask id="D" x="0" y="0" width="18" height="8" fill="#fff"><use xlink:href="#i"/></mask><ellipse id="j" cx="91" cy="83" rx="5" ry="3"/><mask id="E" x="0" y="0" width="10" height="6" fill="#fff"><use xlink:href="#j"/></mask><ellipse id="k" cx="106" cy="20" rx="6" ry="4"/><mask id="F" x="0" y="0" width="12" height="8" fill="#fff"><use xlink:href="#k"/></mask><ellipse id="l" cx="66" cy="64" rx="18" ry="12"/><mask id="G" x="0" y="0" width="36" height="24" fill="#fff"><use xlink:href="#l"/></mask><path id="m" d="M130 18h36v30h-36z"/><mask id="H" x="0" y="0" width="36" height="30" fill="#fff"><use xlink:href="#m"/></mask><path id="n" d="M126 112h12v8h-12z"/><mask id="I" x="0" y="0" width="12" height="8" fill="#fff"><use xlink:href="#n"/></mask><path id="o" d="M144 112h12v8h-12z"/><mask id="J" x="0" y="0" width="12" height="8" fill="#fff"><use xlink:href="#o"/></mask><path id="p" d="M154 122h10v10h-10z"/><mask id="K" x="0" y="0" width="10" height="10" fill="#fff"><use xlink:href="#p"/></mask><path id="q" d="M162 112h12v8h-12z"/><mask id="L" x="0" y="0" width="12" height="8" fill="#fff"><use xlink:href="#q"/></mask><path id="r" d="M180 112h12v8h-12z"/><mask id="M" x="0" y="0" width="12" height="8" fill="#fff"><use xlink:href="#r"/></mask><path id="s" d="M202 118h14v8h-14z"/><mask id="N" x="0" y="0" width="14" height="8" fill="#fff"><use xlink:href="#s"/></mask><circle id="t" cx="148" cy="30" r="6"/><mask id="O" x="0" y="0" width="12" height="12" fill="#fff"><use xlink:href="#t"/></mask><path d="M161 48c0-5.523-5.82-10-13-10s-13 4.477-13 10h26z" id="u"/><mask id="P" x="0" y="0" width="26" height="10" fill="#fff"><use xlink:href="#u"/></mask></defs><g fill="none" fill-rule="evenodd"><path fill="#666" d="M0 0h228v150H0z"/><path fill="#FFF" d="M6 6h216v138H6z"/><path fill="#F9C" d="M236 12h12v12h-12zM236 60h12v12h-12zM236 76h12v12h-12zM252 60h12v12h-12zM252 76h12v12h-12zM268 76h12v12h-12zM268 44h12v12h-12zM268 60h12v12h-12zM236 44h12v12h-12zM236 28h12v12h-12zM252 44h12v12h-12zM252 28h12v12h-12zM268 28h12v12h-12zM252 12h12v12h-12zM92 34h12v12H92z"/><use stroke="#000" mask="url(#v)" stroke-width="4" fill="#A8CE9F" xlink:href="#a"/><use stroke="#000" mask="url(#w)" stroke-width="4" fill="#E7C364" xlink:href="#b"/><use stroke="#000" mask="url(#x)" stroke-width="4" fill="#FFF" xlink:href="#c"/><use stroke="#000" mask="url(#y)" stroke-width="4" fill="#FFF" xlink:href="#d"/><use stroke="#000" mask="url(#z)" stroke-width="4" fill="#FFF" xlink:href="#e"/><use stroke="#000" mask="url(#A)" stroke-width="4" fill="#FFF" xlink:href="#f"/><use stroke="#000" mask="url(#B)" stroke-width="4" fill="#FFF" xlink:href="#g"/><use stroke="#000" mask="url(#C)" stroke-width="4" fill="#FFF" xlink:href="#h"/><use stroke="#000" mask="url(#D)" stroke-width="4" fill="#FFF" xlink:href="#i"/><use stroke="#000" mask="url(#E)" stroke-width="4" fill="#FFF" xlink:href="#j"/><use stroke="#000" mask="url(#F)" stroke-width="4" fill="#A8CE9F" xlink:href="#k"/><use stroke="#000" mask="url(#G)" stroke-width="4" fill="#A8CE9F" xlink:href="#l"/><path fill="#F9C" d="M98 84h12v12H98zM200 68h12v12h-12z"/><use stroke="#000" mask="url(#H)" stroke-width="4" fill="#55ABBC" xlink:href="#m"/><use stroke="#000" mask="url(#I)" stroke-width="4" fill="#E7C364" xlink:href="#n"/><use stroke="#000" mask="url(#J)" stroke-width="4" fill="#E7C364" xlink:href="#o"/><use stroke="#000" mask="url(#K)" stroke-width="4" fill="#E7C364" xlink:href="#p"/><use stroke="#000" mask="url(#L)" stroke-width="4" fill="#E7C364" xlink:href="#q"/><use stroke="#000" mask="url(#M)" stroke-width="4" fill="#E7C364" xlink:href="#r"/><use stroke="#000" mask="url(#N)" stroke-width="4" fill="#E7C364" xlink:href="#s"/><path fill="#000" d="M130 12h42v2h-42zM168 18h38v8h-38zM168 28h24v4h-24zM168 34h48v2h-48zM132 50h24v4h-24zM134 56h32v2h-32zM174 56h18v2h-18zM202 56h8v2h-8zM200 60h14v2h-14zM202 64h10v2h-10zM172 60h22v2h-22z"/><path fill="#000" d="M172 60h22v2h-22zM166 66h28v2h-28zM136 60h24v2h-24zM136 66h20v2h-20zM132 78h40v2h-40zM174 80h22v2h-22zM134 88h20v2h-20zM146 82h24v2h-24zM158 88h20v2h-20zM184 88h24v2h-24zM144 96h10v2h-10zM82.094 124.607h10.262v1.466H82.094zM14 120h10v2H14zM32 66h10v2H32zM46 34h10v2H46zM138 116h6v1h-6zM149 127h6v1h-6zM163 127h6v1h-6zM177 122h25v1h-25zM156 116h6v1h-6zM174 116h6v1h-6z"/><path fill="#000" d="M149 120h1v8h-1zM168 120h1v8h-1zM177 117h1v6h-1zM168 96h36v2h-36zM168 38h42v2h-42zM168 42h36v2h-36z"/><use stroke="#000" mask="url(#O)" stroke-width="4" fill="#FFF" xlink:href="#t"/><use stroke="#000" mask="url(#P)" stroke-width="4" fill="#FFF" xlink:href="#u"/><path d="M33.35 28.22l-2.198 11.728M23.822 24.555l6.597 2.199M27.487 51.675l-5.131 21.99M35.55 50.942L53.14 57.54M26.02 75.13l6.598-5.863M20.157 79.529l3.665 27.853M23.822 79.529l27.12 23.455M62.5 76.5v24M72.932 102.251l16.126-16.858M57.54 108.848l-8.064 13.194M69.267 108.115l14.66 13.927M69.267 53.874l9.529-16.125M39.215 27.487l11.727 5.13M75.864 17.958l3.665 8.796M86.859 28.953l14.66-7.33" stroke="#000" stroke-linecap="square"/><path fill="#F9C" d="M34 84h12v12H34z"/></g></svg>