<?xml version="1.0" encoding="UTF-8" standalone="no"?>
<svg width="24px" height="24px" viewBox="0 0 24 24" version="1.1" xmlns="http://www.w3.org/2000/svg" xmlns:xlink="http://www.w3.org/1999/xlink">
    <!-- Generator: Sketch 3.8.3 (29802) - http://www.bohemiancoding.com/sketch -->
    <title>facebook-black</title>
    <desc>Created with Sketch.</desc>
    <defs></defs>
    <g id="Page-1" stroke="none" stroke-width="1" fill="none" fill-rule="evenodd">
        <g id="color-palette" transform="translate(-273.000000, -568.000000)" fill="#1C2522">
            <path d="M275.4,568 C274.2,568 273,569.20009 273,570.40009 L273,589.60009 C273,590.80009 274.2,592.00009 275.4,592.00009 L285.81916,592.00009 L285.81916,582.706028 L282.691524,582.706028 L282.691524,579.083903 L285.81916,579.083903 L285.81916,576.41272 C285.81916,573.312781 287.712413,571.624823 290.477836,571.624823 C291.802411,571.624823 292.940845,571.72347 293.272754,571.767532 L293.272754,575.007123 L291.354681,575.008022 C289.850798,575.008022 289.559625,575.722645 289.559625,576.771335 L289.559625,579.083903 L293.146321,579.083903 L292.679257,582.706028 L289.559625,582.706028 L289.559625,592.00009 L294.6,592.00009 C295.8,592.00009 297,590.80009 297,589.60009 L297,570.40009 C297,569.20009 295.8,568 294.6,568 L275.4,568 L275.4,568 Z" id="facebook-black"></path>
        </g>
    </g>
</svg>