<?xml version="1.0" encoding="UTF-8" standalone="no"?>
<svg width="24px" height="24px" viewBox="0 0 24 24" version="1.1" xmlns="http://www.w3.org/2000/svg" xmlns:xlink="http://www.w3.org/1999/xlink">
    <!-- Generator: Sketch 3.8.3 (29802) - http://www.bohemiancoding.com/sketch -->
    <title>facebook-black</title>
    <desc>Created with Sketch.</desc>
    <defs></defs>
    <g id="Page-1" stroke="none" stroke-width="1" fill="none" fill-rule="evenodd">
        <g id="images-for-export" transform="translate(-2728.000000, -1796.000000)" fill="#1C2522">
            <path d="M2728,1798.40009 L2728,1817.60009 C2728,1818.80009 2729.2,1820.00009 2730.4,1820.00009 L2740.81916,1820.00009 L2740.81916,1810.70603 C2740.81916,1810.70603 2741.19525,1810.70603 2740.02734,1810.70603 L2737.69152,1810.70603 L2737.69152,1807.0839 L2740.81916,1807.0839 L2740.81916,1804.41272 C2740.81916,1801.31278 2742.71241,1799.62482 2745.47784,1799.62482 C2746.80241,1799.62482 2747.94085,1799.72347 2748.27275,1799.76753 L2748.27275,1803.00712 L2746.35468,1803.00802 C2744.8508,1803.00802 2744.55962,1803.72265 2744.55962,1804.77134 L2744.55962,1807.0839 L2748.14632,1807.0839 L2747.67926,1810.70603 L2744.55962,1810.70603 L2744.55962,1820.00009 L2749.6,1820.00009 C2750.8,1820.00009 2752,1818.80009 2752,1817.60009 L2752,1798.40009 C2752,1797.20009 2750.8,1796 2749.6,1796 L2730.4,1796 C2729.2,1796 2728,1797.20009 2728,1798.40009 Z" id="facebook-black"></path>
        </g>
    </g>
</svg>