<?xml version="1.0" encoding="UTF-8" standalone="no"?>
<svg width="24px" height="24px" viewBox="0 0 24 24" version="1.1" xmlns="http://www.w3.org/2000/svg" xmlns:xlink="http://www.w3.org/1999/xlink">
    <!-- Generator: Sketch 3.8.3 (29802) - http://www.bohemiancoding.com/sketch -->
    <title>facebook-white</title>
    <desc>Created with Sketch.</desc>
    <defs></defs>
    <g id="Page-1" stroke="none" stroke-width="1" fill="none" fill-rule="evenodd">
        <g id="images-for-export" transform="translate(-2538.000000, -1796.000000)" fill="#FFFFFF">
            <path d="M2538,1798.40009 L2538,1817.60009 C2538,1818.80009 2539.2,1820.00009 2540.4,1820.00009 L2550.81916,1820.00009 L2550.81916,1810.70603 C2550.81916,1810.70603 2551.19525,1810.70603 2550.02734,1810.70603 L2547.69152,1810.70603 L2547.69152,1807.0839 L2550.81916,1807.0839 L2550.81916,1804.41272 C2550.81916,1801.31278 2552.71241,1799.62482 2555.47784,1799.62482 C2556.80241,1799.62482 2557.94085,1799.72347 2558.27275,1799.76753 L2558.27275,1803.00712 L2556.35468,1803.00802 C2554.8508,1803.00802 2554.55962,1803.72265 2554.55962,1804.77134 L2554.55962,1807.0839 L2558.14632,1807.0839 L2557.67926,1810.70603 L2554.55962,1810.70603 L2554.55962,1820.00009 L2559.6,1820.00009 C2560.8,1820.00009 2562,1818.80009 2562,1817.60009 L2562,1798.40009 C2562,1797.20009 2560.8,1796 2559.6,1796 L2540.4,1796 C2539.2,1796 2538,1797.20009 2538,1798.40009 Z" id="facebook-white"></path>
        </g>
    </g>
</svg>