<?xml version="1.0" encoding="UTF-8" standalone="no"?>
<svg width="80px" height="80px" viewBox="0 0 80 80" version="1.1" xmlns="http://www.w3.org/2000/svg" xmlns:xlink="http://www.w3.org/1999/xlink">
    <!-- Generator: Sketch 3.8.3 (29802) - http://www.bohemiancoding.com/sketch -->
    <title>logotype</title>
    <desc>Created with Sketch.</desc>
    <defs></defs>
    <g id="Symbols" stroke="none" stroke-width="1" fill="none" fill-rule="evenodd" fill-opacity="0.200000003">
        <g id="footer-global" transform="translate(-472.000000, -745.000000)" fill="#FFFFFF">
            <g id="Contact">
                <g id="logotype" transform="translate(472.000000, 745.000000)">
                    <g id="logo">
                        <rect id="Rectangle-path" x="41.3422819" y="40.966443" width="5.58389262" height="13.7986577"></rect>
                        <path d="M57.8791946,55.4630872 L61.6375839,58.6308725 C56.3221477,64.8590604 48.4295302,68.8322148 39.6241611,68.8322148 C23.6778523,68.8322148 10.7919463,55.8926174 10.7919463,40 C10.7919463,25.3422819 21.5838926,12.9932886 36.0805369,11.3825503 L36.6174497,16.3221477 C24.8590604,17.8255034 15.7852349,27.8657718 15.7852349,40.0536913 C15.7852349,53.261745 26.4697987,63.9463087 39.6778523,63.9463087 C46.9261745,63.8926174 53.4765101,60.6174497 57.8791946,55.4630872 L57.8791946,55.4630872 Z" id="Shape"></path>
                        <path d="M39.8926174,0.161073826 C17.9328859,0.161073826 0.161073826,17.9328859 0.161073826,39.8926174 C0.161073826,61.852349 17.9328859,79.6241611 39.8926174,79.6241611 C61.852349,79.6241611 79.6241611,61.852349 79.6241611,39.8926174 C79.6778523,17.9865772 61.852349,0.161073826 39.8926174,0.161073826 L39.8926174,0.161073826 Z M39.7852349,75.6510067 C20.1342282,75.6510067 4.18791946,59.704698 4.18791946,40.0536913 C4.18791946,20.4026846 20.1342282,4.45637584 39.7852349,4.45637584 C59.4362416,4.45637584 75.3825503,20.4026846 75.3825503,40.0536913 C75.3825503,59.704698 59.4362416,75.6510067 39.7852349,75.6510067 L39.7852349,75.6510067 Z" id="Shape"></path>
                        <path d="M68.4563758,40 L36.6174497,40 L36.6174497,35.114094 C38.8187919,35.114094 58.2013423,35.0604027 63.033557,35.0604027 C61.2080537,26.6845638 54.9798658,19.8120805 46.8724832,17.1812081 L46.9261745,34.0939597 L41.2885906,34.0939597 L41.2885906,16.1073826 C40.7516779,16.0536913 40.1610738,16.0536913 39.6241611,16.0536913 C39.033557,16.0536913 38.4966443,16.0536913 37.9060403,16.1073826 L37.5838926,11.1677852 C38.2281879,11.114094 38.9261745,11.114094 39.5704698,11.114094 C55.5704698,11.114094 68.4563758,24.0536913 68.4563758,40 L68.4563758,40 Z" id="Shape"></path>
                    </g>
                </g>
            </g>
        </g>
    </g>
</svg>