<?xml version="1.0" encoding="UTF-8" standalone="no"?>
<svg width="26px" height="25px" viewBox="0 0 26 25" version="1.1" xmlns="http://www.w3.org/2000/svg" xmlns:xlink="http://www.w3.org/1999/xlink">
    <!-- Generator: Sketch 3.8.3 (29802) - http://www.bohemiancoding.com/sketch -->
    <title>github-black</title>
    <desc>Created with Sketch.</desc>
    <defs></defs>
    <g id="Page-1" stroke="none" stroke-width="1" fill="none" fill-rule="evenodd">
        <g id="images-for-export" transform="translate(-2727.000000, -1867.000000)" fill="#1C2522">
            <path d="M2739.9988,1867 C2732.82105,1867 2727,1872.73803 2727,1879.81673 C2727,1885.47923 2730.72455,1890.28255 2735.89039,1891.97729 C2736.54081,1892.09531 2736.77783,1891.69955 2736.77783,1891.35966 C2736.77783,1891.05596 2736.76666,1890.24951 2736.76028,1889.18027 C2733.14426,1889.95446 2732.38132,1887.46193 2732.38132,1887.46193 C2731.78996,1885.9812 2730.93763,1885.58702 2730.93763,1885.58702 C2729.7573,1884.79236 2731.02701,1884.8081 2731.02701,1884.8081 C2732.33184,1884.89858 2733.01817,1886.12911 2733.01817,1886.12911 C2734.17775,1888.08742 2736.06117,1887.52172 2736.80177,1887.19363 C2736.91989,1886.36593 2737.25587,1885.80102 2737.62697,1885.4808 C2734.74038,1885.15743 2731.70536,1884.05751 2731.70536,1879.14639 C2731.70536,1877.74749 2732.21213,1876.60272 2733.04371,1875.70735 C2732.90964,1875.3832 2732.46352,1874.07949 2733.1714,1872.31552 C2733.1714,1872.31552 2734.26235,1871.97091 2736.74591,1873.62945 C2737.78259,1873.34464 2738.89509,1873.20302 2740.0004,1873.19751 C2741.10491,1873.20302 2742.21661,1873.34464 2743.25489,1873.62945 C2745.73686,1871.97091 2746.82621,1872.31552 2746.82621,1872.31552 C2747.53568,1874.07949 2747.08957,1875.3832 2746.95629,1875.70735 C2747.78947,1876.60272 2748.29224,1877.74749 2748.29224,1879.14639 C2748.29224,1884.0701 2745.25243,1885.1535 2742.35707,1885.47057 C2742.82314,1885.86633 2743.23893,1886.64839 2743.23893,1887.8443 C2743.23893,1889.55714 2743.22297,1890.93952 2743.22297,1891.35966 C2743.22297,1891.7027 2743.4576,1892.1016 2744.11679,1891.9765 C2749.27865,1890.27783 2753,1885.47765 2753,1879.81673 C2753,1872.73803 2747.17895,1867 2739.9988,1867" id="github-black"></path>
        </g>
    </g>
</svg>