<?xml version="1.0" encoding="UTF-8" standalone="no"?>
<svg width="26px" height="25px" viewBox="0 0 26 25" version="1.1" xmlns="http://www.w3.org/2000/svg" xmlns:xlink="http://www.w3.org/1999/xlink">
    <!-- Generator: Sketch 3.8.3 (29802) - http://www.bohemiancoding.com/sketch -->
    <title>github-white</title>
    <desc>Created with Sketch.</desc>
    <defs></defs>
    <g id="Page-1" stroke="none" stroke-width="1" fill="none" fill-rule="evenodd">
        <g id="images-for-export" transform="translate(-2537.000000, -1867.000000)" fill="#FFFFFF">
            <path d="M2549.9988,1867 C2542.82105,1867 2537,1872.73803 2537,1879.81673 C2537,1885.47923 2540.72455,1890.28255 2545.89039,1891.97729 C2546.54081,1892.09531 2546.77783,1891.69955 2546.77783,1891.35966 C2546.77783,1891.05596 2546.76666,1890.24951 2546.76028,1889.18027 C2543.14426,1889.95446 2542.38132,1887.46193 2542.38132,1887.46193 C2541.78996,1885.9812 2540.93763,1885.58702 2540.93763,1885.58702 C2539.7573,1884.79236 2541.02701,1884.8081 2541.02701,1884.8081 C2542.33184,1884.89858 2543.01817,1886.12911 2543.01817,1886.12911 C2544.17775,1888.08742 2546.06117,1887.52172 2546.80177,1887.19363 C2546.91989,1886.36593 2547.25587,1885.80102 2547.62697,1885.4808 C2544.74038,1885.15743 2541.70536,1884.05751 2541.70536,1879.14639 C2541.70536,1877.74749 2542.21213,1876.60272 2543.04371,1875.70735 C2542.90964,1875.3832 2542.46352,1874.07949 2543.1714,1872.31552 C2543.1714,1872.31552 2544.26235,1871.97091 2546.74591,1873.62945 C2547.78259,1873.34464 2548.89509,1873.20302 2550.0004,1873.19751 C2551.10491,1873.20302 2552.21661,1873.34464 2553.25489,1873.62945 C2555.73686,1871.97091 2556.82621,1872.31552 2556.82621,1872.31552 C2557.53568,1874.07949 2557.08957,1875.3832 2556.95629,1875.70735 C2557.78947,1876.60272 2558.29224,1877.74749 2558.29224,1879.14639 C2558.29224,1884.0701 2555.25243,1885.1535 2552.35707,1885.47057 C2552.82314,1885.86633 2553.23893,1886.64839 2553.23893,1887.8443 C2553.23893,1889.55714 2553.22297,1890.93952 2553.22297,1891.35966 C2553.22297,1891.7027 2553.4576,1892.1016 2554.11679,1891.9765 C2559.27865,1890.27783 2563,1885.47765 2563,1879.81673 C2563,1872.73803 2557.17895,1867 2549.9988,1867" id="github-white"></path>
        </g>
    </g>
</svg>