<?xml version="1.0" encoding="UTF-8" standalone="no"?>
<svg width="30px" height="29px" viewBox="0 0 30 29" version="1.1" xmlns="http://www.w3.org/2000/svg" xmlns:xlink="http://www.w3.org/1999/xlink">
    <!-- Generator: Sketch 3.8.3 (29802) - http://www.bohemiancoding.com/sketch -->
    <title>github</title>
    <desc>Created with Sketch.</desc>
    <defs></defs>
    <g id="Page-1" stroke="none" stroke-width="1" fill="none" fill-rule="evenodd">
        <g id="color-palette" transform="translate(-156.000000, -637.000000)" fill="#FFFFFF">
            <path d="M170.998619,637 C162.716597,637 156,643.65611 156,651.867411 C156,658.435904 160.297554,664.007761 166.258142,665.973654 C167.008625,666.110555 167.282114,665.651481 167.282114,665.257207 C167.282114,664.904916 167.269223,663.969429 167.261856,662.729109 C163.089536,663.627177 162.209215,660.735835 162.209215,660.735835 C161.526873,659.018188 160.543418,658.56094 160.543418,658.56094 C159.181497,657.639142 160.646551,657.657396 160.646551,657.657396 C162.152123,657.762353 162.944044,659.18977 162.944044,659.18977 C164.282022,661.461409 166.455201,660.805198 167.309739,660.424614 C167.446024,659.464484 167.833697,658.809187 168.261886,658.43773 C164.931213,658.062622 161.429264,656.786708 161.429264,651.089815 C161.429264,649.467086 162.013997,648.13915 162.973511,647.10053 C162.81881,646.72451 162.304061,645.212214 163.120845,643.166005 C163.120845,643.166005 164.379631,642.766255 167.245281,644.690166 C168.44145,644.359779 169.725099,644.195498 171.00046,644.18911 C172.274901,644.195498 173.557629,644.359779 174.75564,644.690166 C177.619448,642.766255 178.876393,643.166005 178.876393,643.166005 C179.695018,645.212214 179.180269,646.72451 179.026489,647.10053 C179.987845,648.13915 180.567973,649.467086 180.567973,651.089815 C180.567973,656.80131 177.060499,658.058058 173.719697,658.425865 C174.257466,658.884938 174.737223,659.792133 174.737223,661.179393 C174.737223,663.166278 174.718807,664.769841 174.718807,665.257207 C174.718807,665.655132 174.989533,666.117856 175.750146,665.972741 C181.70613,664.002285 186,658.434079 186,651.867411 C186,643.65611 179.283403,637 170.998619,637" id="github"></path>
        </g>
    </g>
</svg>