<?xml version="1.0" encoding="UTF-8" standalone="no"?>
<svg width="30px" height="29px" viewBox="0 0 30 29" version="1.1" xmlns="http://www.w3.org/2000/svg" xmlns:xlink="http://www.w3.org/1999/xlink">
    <!-- Generator: Sketch 3.8.3 (29802) - http://www.bohemiancoding.com/sketch -->
    <title>github-black</title>
    <desc>Created with Sketch.</desc>
    <defs></defs>
    <g id="Page-1" stroke="none" stroke-width="1" fill="none" fill-rule="evenodd">
        <g id="color-palette" transform="translate(-270.000000, -637.000000)" fill="#1C2522">
            <path d="M284.998619,637 C276.716597,637 270,643.65611 270,651.867411 C270,658.435904 274.297554,664.007761 280.258142,665.973654 C281.008625,666.110555 281.282114,665.651481 281.282114,665.257207 C281.282114,664.904916 281.269223,663.969429 281.261856,662.729109 C277.089536,663.627177 276.209215,660.735835 276.209215,660.735835 C275.526873,659.018188 274.543418,658.56094 274.543418,658.56094 C273.181497,657.639142 274.646551,657.657396 274.646551,657.657396 C276.152123,657.762353 276.944044,659.18977 276.944044,659.18977 C278.282022,661.461409 280.455201,660.805198 281.309739,660.424614 C281.446024,659.464484 281.833697,658.809187 282.261886,658.43773 C278.931213,658.062622 275.429264,656.786708 275.429264,651.089815 C275.429264,649.467086 276.013997,648.13915 276.973511,647.10053 C276.81881,646.72451 276.304061,645.212214 277.120845,643.166005 C277.120845,643.166005 278.379631,642.766255 281.245281,644.690166 C282.44145,644.359779 283.725099,644.195498 285.00046,644.18911 C286.274901,644.195498 287.557629,644.359779 288.75564,644.690166 C291.619448,642.766255 292.876393,643.166005 292.876393,643.166005 C293.695018,645.212214 293.180269,646.72451 293.026489,647.10053 C293.987845,648.13915 294.567973,649.467086 294.567973,651.089815 C294.567973,656.80131 291.060499,658.058058 287.719697,658.425865 C288.257466,658.884938 288.737223,659.792133 288.737223,661.179393 C288.737223,663.166278 288.718807,664.769841 288.718807,665.257207 C288.718807,665.655132 288.989533,666.117856 289.750146,665.972741 C295.70613,664.002285 300,658.434079 300,651.867411 C300,643.65611 293.283403,637 284.998619,637" id="github-black"></path>
        </g>
    </g>
</svg>