<svg width="26" height="239" viewBox="0 0 26 239" xmlns="http://www.w3.org/2000/svg"><title>icons-black</title><g fill="none" fill-rule="evenodd"><path d="M1 222l7-7 7 7-7 7-7-7zm17 11l1-1 6 6-1 1-6-6zm-9-3l7-7h9L9 239v-9zm6 5h1v4h-1v-4zm6-6h4v1h-4v-1z" fill="#000"/><path d="M21.452 200.451h-3.56v-5.57c0-1.328-.022-3.037-1.849-3.037-1.853 0-2.135 1.448-2.135 2.942v5.665h-3.556v-11.453h3.412v1.566h.05c.474-.901 1.636-1.85 3.367-1.85 3.605 0 4.27 2.371 4.27 5.456v6.281zM6.339 187.433a2.064 2.064 0 1 1 0-4.129 2.064 2.064 0 0 1 0 4.129zM4.556 200.45H8.12v-11.453H4.556v11.453zM23.225 180H2.77c-.977 0-1.77.775-1.77 1.73v20.539c0 .956.793 1.732 1.77 1.732h20.455c.978 0 1.775-.776 1.775-1.732V181.73c0-.956-.797-1.731-1.775-1.731z" fill="#1A1918"/><path d="M12.999 143C5.82 143 0 148.738 0 155.817c0 5.662 3.725 10.466 8.89 12.16.65.118.888-.277.888-.617 0-.304-.011-1.11-.018-2.18-3.616.774-4.379-1.718-4.379-1.718-.591-1.48-1.443-1.875-1.443-1.875-1.18-.795.089-.779.089-.779 1.305.09 1.991 1.321 1.991 1.321 1.16 1.958 3.043 1.393 3.784 1.065.118-.828.454-1.393.825-1.713-2.887-.324-5.922-1.423-5.922-6.335 0-1.399.507-2.543 1.339-3.439-.134-.324-.58-1.628.127-3.391 0 0 1.091-.345 3.575 1.313a12.619 12.619 0 0 1 3.254-.431c1.105.005 2.217.147 3.255.431 2.482-1.658 3.571-1.313 3.571-1.313.71 1.763.264 3.067.13 3.391.833.896 1.336 2.04 1.336 3.44 0 4.923-3.04 6.006-5.935 6.324.466.395.882 1.177.882 2.373 0 1.713-.016 3.096-.016 3.516 0 .343.235.742.894.617 5.162-1.7 8.883-6.5 8.883-12.16C26 148.738 20.179 143 12.999 143M22.936 112.32a5.323 5.323 0 0 0 2.346-2.932 10.723 10.723 0 0 1-3.388 1.286A5.343 5.343 0 0 0 18.001 109c-2.946 0-5.335 2.374-5.335 5.301 0 .416.048.82.139 1.209a15.175 15.175 0 0 1-10.995-5.54 5.29 5.29 0 0 0 1.65 7.078 5.338 5.338 0 0 1-2.415-.663v.067c0 2.569 1.838 4.711 4.278 5.198a5.372 5.372 0 0 1-2.409.091 5.335 5.335 0 0 0 4.983 3.682 10.745 10.745 0 0 1-6.625 2.27c-.43 0-.855-.026-1.272-.075A15.166 15.166 0 0 0 8.177 130c9.811 0 15.177-8.078 15.177-15.084 0-.23-.005-.458-.016-.686A10.805 10.805 0 0 0 26 111.486c-.957.422-1.985.707-3.064.835zM1 74.4v19.2C1 94.8 2.2 96 3.4 96h10.42v-9.294h-3.128v-3.622h3.127v-2.671c0-3.1 1.893-4.788 4.659-4.788 1.324 0 2.463.098 2.795.143v3.24h-1.918c-1.504 0-1.795.715-1.795 1.763v2.313h3.586l-.467 3.622h-3.12V96H22.6c1.2 0 2.4-1.2 2.4-2.4V74.4c0-1.2-1.2-2.4-2.4-2.4H3.4C2.2 72 1 73.2 1 74.4zM5 36.997C5 35.894 5.89 35 7 35h13a2 2 0 0 1 2 1.997v22.006C22 60.106 21.11 61 20 61H7a2 2 0 0 1-2-1.997V36.997zM7 40h13v16H7V40zm3-3h7v1h-7v-1zm3.5 23a1.5 1.5 0 1 0 0-3 1.5 1.5 0 0 0 0 3zM1 1.997A2 2 0 0 1 3.005 0h19.99A2 2 0 0 1 25 1.997v15.006A2 2 0 0 1 22.995 19H3.005A2 2 0 0 1 1 17.003V1.997zM3 2h20v12H3V2zm7 18h6v3h-6v-3zm-2 3h10v1H8v-1z" fill="#1C2522"/></g></svg>