<svg width="24" height="24" viewBox="0 0 24 24" xmlns="http://www.w3.org/2000/svg"><title>linkedin-white</title><path d="M20.452 20.451h-3.56v-5.57c0-1.328-.022-3.037-1.849-3.037-1.853 0-2.135 1.448-2.135 2.942v5.665H9.352V8.998h3.412v1.566h.05c.474-.901 1.636-1.85 3.367-1.85 3.605 0 4.27 2.371 4.27 5.456v6.281zM5.339 7.433a2.064 2.064 0 1 1 0-4.129 2.064 2.064 0 0 1 0 4.129zM3.556 20.45H7.12V8.998H3.556V20.45zM22.225 0H1.77C.793 0 0 .775 0 1.73v20.54C0 23.225.793 24 1.77 24h20.455c.978 0 1.775-.776 1.775-1.732V1.73C24 .775 23.203 0 22.225 0z" fill="#FFF" fill-rule="evenodd"/></svg>