<?xml version="1.0" encoding="UTF-8" standalone="no"?>
<svg width="24px" height="24px" viewBox="0 0 24 24" version="1.1" xmlns="http://www.w3.org/2000/svg" xmlns:xlink="http://www.w3.org/1999/xlink">
    <!-- Generator: Sketch 3.8.3 (29802) - http://www.bohemiancoding.com/sketch -->
    <title>linkedin-black</title>
    <desc>Created with Sketch.</desc>
    <defs></defs>
    <g id="Page-1" stroke="none" stroke-width="1" fill="none" fill-rule="evenodd">
        <g id="images-for-export" transform="translate(-2728.000000, -1904.000000)" fill="#1A1918">
            <path d="M2748.4519,1924.45123 L2744.89247,1924.45123 L2744.89247,1918.88108 C2744.89247,1917.55304 2744.8698,1915.84433 2743.04308,1915.84433 C2741.19037,1915.84433 2740.90769,1917.2917 2740.90769,1918.78641 L2740.90769,1924.45123 L2737.35226,1924.45123 L2737.35226,1912.99758 L2740.76435,1912.99758 L2740.76435,1914.56363 L2740.81369,1914.56363 C2741.28837,1913.66294 2742.44973,1912.71358 2744.18112,1912.71358 C2747.78588,1912.71358 2748.4519,1915.08497 2748.4519,1918.16973 L2748.4519,1924.45123 L2748.4519,1924.45123 Z M2733.33881,1911.43287 C2732.19545,1911.43287 2731.27342,1910.50818 2731.27342,1909.36815 C2731.27342,1908.22878 2732.19545,1907.30409 2733.33881,1907.30409 C2734.47751,1907.30409 2735.40154,1908.22878 2735.40154,1909.36815 C2735.40154,1910.50818 2734.47751,1911.43287 2733.33881,1911.43287 L2733.33881,1911.43287 Z M2731.5561,1924.45123 L2735.11953,1924.45123 L2735.11953,1912.99758 L2731.5561,1912.99758 L2731.5561,1924.45123 Z M2750.22462,1904 L2729.77005,1904 C2728.79336,1904 2728,1904.77469 2728,1905.73071 L2728,1926.26862 C2728,1927.22465 2728.79336,1928.00067 2729.77005,1928.00067 L2750.22462,1928.00067 C2751.20331,1928.00067 2752,1927.22465 2752,1926.26862 L2752,1905.73071 C2752,1904.77469 2751.20331,1904 2750.22462,1904 L2750.22462,1904 Z" id="linkedin-black"></path>
        </g>
    </g>
</svg>