<?xml version="1.0" encoding="UTF-8" standalone="no"?>
<svg width="24px" height="24px" viewBox="0 0 24 24" version="1.1" xmlns="http://www.w3.org/2000/svg" xmlns:xlink="http://www.w3.org/1999/xlink">
    <!-- Generator: Sketch 3.8.3 (29802) - http://www.bohemiancoding.com/sketch -->
    <title>linkedin-white</title>
    <desc>Created with Sketch.</desc>
    <defs></defs>
    <g id="Page-1" stroke="none" stroke-width="1" fill="none" fill-rule="evenodd">
        <g id="images-for-export" transform="translate(-2538.000000, -1904.000000)" fill="#FFFFFF">
            <path d="M2558.4519,1924.45123 L2554.89247,1924.45123 L2554.89247,1918.88108 C2554.89247,1917.55304 2554.8698,1915.84433 2553.04308,1915.84433 C2551.19037,1915.84433 2550.90769,1917.2917 2550.90769,1918.78641 L2550.90769,1924.45123 L2547.35226,1924.45123 L2547.35226,1912.99758 L2550.76435,1912.99758 L2550.76435,1914.56363 L2550.81369,1914.56363 C2551.28837,1913.66294 2552.44973,1912.71358 2554.18112,1912.71358 C2557.78588,1912.71358 2558.4519,1915.08497 2558.4519,1918.16973 L2558.4519,1924.45123 L2558.4519,1924.45123 Z M2543.33881,1911.43287 C2542.19545,1911.43287 2541.27342,1910.50818 2541.27342,1909.36815 C2541.27342,1908.22878 2542.19545,1907.30409 2543.33881,1907.30409 C2544.47751,1907.30409 2545.40154,1908.22878 2545.40154,1909.36815 C2545.40154,1910.50818 2544.47751,1911.43287 2543.33881,1911.43287 L2543.33881,1911.43287 Z M2541.5561,1924.45123 L2545.11953,1924.45123 L2545.11953,1912.99758 L2541.5561,1912.99758 L2541.5561,1924.45123 Z M2560.22462,1904 L2539.77005,1904 C2538.79336,1904 2538,1904.77469 2538,1905.73071 L2538,1926.26862 C2538,1927.22465 2538.79336,1928.00067 2539.77005,1928.00067 L2560.22462,1928.00067 C2561.20331,1928.00067 2562,1927.22465 2562,1926.26862 L2562,1905.73071 C2562,1904.77469 2561.20331,1904 2560.22462,1904 L2560.22462,1904 Z" id="linkedin-white"></path>
        </g>
    </g>
</svg>