<?xml version="1.0" encoding="UTF-8" standalone="no"?>
<svg width="17px" height="26px" viewBox="0 0 17 26" version="1.1" xmlns="http://www.w3.org/2000/svg" xmlns:xlink="http://www.w3.org/1999/xlink">
    <!-- Generator: Sketch 3.8.3 (29802) - http://www.bohemiancoding.com/sketch -->
    <title>phone-white</title>
    <desc>Created with Sketch.</desc>
    <defs></defs>
    <g id="Page-1" stroke="none" stroke-width="1" fill="none" fill-rule="evenodd">
        <g id="images-for-export" transform="translate(-2542.000000, -1759.000000)" fill="#FFFFFF">
            <path d="M2542,1760.997 C2542,1759.89409 2542.89006,1759 2544.00011,1759 L2556.99989,1759 C2558.10452,1759 2559,1759.89498 2559,1760.997 L2559,1783.003 C2559,1784.10591 2558.10994,1785 2556.99989,1785 L2544.00011,1785 C2542.89548,1785 2542,1784.10502 2542,1783.003 L2542,1760.997 Z M2544,1764 L2557,1764 L2557,1780 L2544,1780 L2544,1764 Z M2547,1761 L2554,1761 L2554,1762 L2547,1762 L2547,1761 Z M2550.5,1784 C2551.32843,1784 2552,1783.32843 2552,1782.5 C2552,1781.67157 2551.32843,1781 2550.5,1781 C2549.67157,1781 2549,1781.67157 2549,1782.5 C2549,1783.32843 2549.67157,1784 2550.5,1784 Z" id="phone-white"></path>
        </g>
    </g>
</svg>