<?xml version="1.0" encoding="UTF-8" standalone="no"?>
<svg width="26px" height="21px" viewBox="0 0 26 21" version="1.1" xmlns="http://www.w3.org/2000/svg" xmlns:xlink="http://www.w3.org/1999/xlink">
    <!-- Generator: Sketch 3.8.3 (29802) - http://www.bohemiancoding.com/sketch -->
    <title>twitter-white</title>
    <desc>Created with Sketch.</desc>
    <defs></defs>
    <g id="Page-1" stroke="none" stroke-width="1" fill="none" fill-rule="evenodd">
        <g id="images-for-export" transform="translate(-2537.000000, -1833.000000)" fill="#FFFFFF">
            <path d="M2559.93628,1836.32073 C2561.03766,1835.66458 2561.8834,1834.62563 2562.28169,1833.38772 C2561.25107,1833.99519 2560.10946,1834.4364 2558.89444,1834.67421 C2557.92135,1833.64386 2556.53505,1833 2555.00086,1833 C2552.05487,1833 2549.66648,1835.37365 2549.66648,1838.30137 C2549.66648,1838.71688 2549.71374,1839.12151 2549.80466,1839.50951 C2545.37137,1839.28843 2541.44089,1837.17783 2538.80999,1833.97042 C2538.35083,1834.75342 2538.08778,1835.66411 2538.08778,1836.63567 C2538.08778,1838.47491 2539.02958,1840.09761 2540.46087,1841.04828 C2539.5864,1841.02077 2538.76396,1840.7823 2538.0447,1840.38523 C2538.04432,1840.40734 2538.04432,1840.42956 2538.04432,1840.45186 C2538.04432,1843.02051 2539.88302,1845.16325 2542.32325,1845.65021 C2541.87561,1845.77138 2541.40437,1845.83613 2540.91783,1845.83613 C2540.57413,1845.83613 2540.23994,1845.80295 2539.91431,1845.74104 C2540.59306,1847.8473 2542.56301,1849.38002 2544.89719,1849.42283 C2543.07161,1850.84468 2540.77156,1851.69223 2538.27247,1851.69223 C2537.84194,1851.69223 2537.41731,1851.66718 2537,1851.61822 C2539.36063,1853.12239 2542.16453,1854 2545.17689,1854 C2554.9884,1854 2560.35369,1845.92176 2560.35369,1838.91612 C2560.35369,1838.68625 2560.34855,1838.45761 2560.33828,1838.23029 C2561.38041,1837.48284 2562.28483,1836.54909 2563,1835.48594 C2562.04337,1835.90759 2561.01531,1836.19256 2559.93628,1836.32073 Z" id="twitter-white"></path>
        </g>
    </g>
</svg>