<?xml version="1.0" encoding="UTF-8" standalone="no"?>
<svg width="30px" height="25px" viewBox="0 0 30 25" version="1.1" xmlns="http://www.w3.org/2000/svg" xmlns:xlink="http://www.w3.org/1999/xlink">
    <!-- Generator: Sketch 3.8.3 (29802) - http://www.bohemiancoding.com/sketch -->
    <title>twitter</title>
    <desc>Created with Sketch.</desc>
    <defs></defs>
    <g id="Page-1" stroke="none" stroke-width="1" fill="none" fill-rule="evenodd">
        <g id="color-palette" transform="translate(-156.000000, -603.000000)" fill="#FFFFFF">
            <path d="M182.46494,607.666213 C183.735762,606.916328 184.711621,605.728955 185.171184,604.314198 C183.982004,605.008452 182.664765,605.512696 181.262811,605.784479 C180.14002,604.606936 178.540437,603.871094 176.770218,603.871094 C173.371008,603.871094 170.615165,606.583838 170.615165,609.929803 C170.615165,610.404666 170.669703,610.867106 170.774608,611.310534 C165.659278,611.057872 161.124108,608.645752 158.088445,604.98015 C157.558652,605.875001 157.25513,606.915788 157.25513,608.026141 C157.25513,610.128131 158.341819,611.982644 159.993306,613.069124 C158.984308,613.03769 158.035334,612.765152 157.205421,612.311353 C157.204982,612.33663 157.204982,612.362015 157.204982,612.387509 C157.204982,615.323101 159.326566,617.771948 162.142214,618.328475 C161.6257,618.466958 161.081971,618.540953 160.520575,618.540953 C160.123999,618.540953 159.738396,618.503038 159.362669,618.432283 C160.145836,620.839434 162.418852,622.591111 165.112147,622.640045 C163.005706,624.265012 160.351805,625.233641 157.468232,625.233641 C156.971469,625.233641 156.48151,625.205015 156,625.14906 C158.723801,626.868114 161.959069,627.871094 165.434873,627.871094 C176.755843,627.871094 182.94656,618.638821 182.94656,610.632375 C182.94656,610.369667 182.940634,610.108363 182.928783,609.848571 C184.131241,608.994337 185.174805,607.927193 186,606.712167 C184.896192,607.194051 183.709975,607.519736 182.46494,607.666213 Z" id="twitter"></path>
        </g>
    </g>
</svg>