<?xml version="1.0" encoding="UTF-8" standalone="no"?>
<svg width="30px" height="25px" viewBox="0 0 30 25" version="1.1" xmlns="http://www.w3.org/2000/svg" xmlns:xlink="http://www.w3.org/1999/xlink">
    <!-- Generator: Sketch 3.8.3 (29802) - http://www.bohemiancoding.com/sketch -->
    <title>twitter-black</title>
    <desc>Created with Sketch.</desc>
    <defs></defs>
    <g id="Page-1" stroke="none" stroke-width="1" fill="none" fill-rule="evenodd">
        <g id="color-palette" transform="translate(-270.000000, -603.000000)" fill="#1C2522">
            <path d="M296.46494,607.666213 C297.735762,606.916328 298.711621,605.728955 299.171184,604.314198 C297.982004,605.008452 296.664765,605.512696 295.262811,605.784479 C294.14002,604.606936 292.540437,603.871094 290.770218,603.871094 C287.371008,603.871094 284.615165,606.583838 284.615165,609.929803 C284.615165,610.404666 284.669703,610.867106 284.774608,611.310534 C279.659278,611.057872 275.124108,608.645752 272.088445,604.98015 C271.558652,605.875001 271.25513,606.915788 271.25513,608.026141 C271.25513,610.128131 272.341819,611.982644 273.993306,613.069124 C272.984308,613.03769 272.035334,612.765152 271.205421,612.311353 C271.204982,612.33663 271.204982,612.362015 271.204982,612.387509 C271.204982,615.323101 273.326566,617.771948 276.142214,618.328475 C275.6257,618.466958 275.081971,618.540953 274.520575,618.540953 C274.123999,618.540953 273.738396,618.503038 273.362669,618.432283 C274.145836,620.839434 276.418852,622.591111 279.112147,622.640045 C277.005706,624.265012 274.351805,625.233641 271.468232,625.233641 C270.971469,625.233641 270.48151,625.205015 270,625.14906 C272.723801,626.868114 275.959069,627.871094 279.434873,627.871094 C290.755843,627.871094 296.94656,618.638821 296.94656,610.632375 C296.94656,610.369667 296.940634,610.108363 296.928783,609.848571 C298.131241,608.994337 299.174805,607.927193 300,606.712167 C298.896192,607.194051 297.709975,607.519736 296.46494,607.666213 Z" id="twitter-black"></path>
        </g>
    </g>
</svg>