<?xml version="1.0" encoding="UTF-8" standalone="no"?>
<svg width="26px" height="21px" viewBox="0 0 26 21" version="1.1" xmlns="http://www.w3.org/2000/svg" xmlns:xlink="http://www.w3.org/1999/xlink">
    <!-- Generator: Sketch 3.8.3 (29802) - http://www.bohemiancoding.com/sketch -->
    <title>twitter-black</title>
    <desc>Created with Sketch.</desc>
    <defs></defs>
    <g id="Page-1" stroke="none" stroke-width="1" fill="none" fill-rule="evenodd">
        <g id="images-for-export" transform="translate(-2727.000000, -1833.000000)" fill="#1C2522">
            <path d="M2749.93628,1836.32073 C2751.03766,1835.66458 2751.8834,1834.62563 2752.28169,1833.38772 C2751.25107,1833.99519 2750.10946,1834.4364 2748.89444,1834.67421 C2747.92135,1833.64386 2746.53505,1833 2745.00086,1833 C2742.05487,1833 2739.66648,1835.37365 2739.66648,1838.30137 C2739.66648,1838.71688 2739.71374,1839.12151 2739.80466,1839.50951 C2735.37137,1839.28843 2731.44089,1837.17783 2728.80999,1833.97042 C2728.35083,1834.75342 2728.08778,1835.66411 2728.08778,1836.63567 C2728.08778,1838.47491 2729.02958,1840.09761 2730.46087,1841.04828 C2729.5864,1841.02077 2728.76396,1840.7823 2728.0447,1840.38523 C2728.04432,1840.40734 2728.04432,1840.42956 2728.04432,1840.45186 C2728.04432,1843.02051 2729.88302,1845.16325 2732.32325,1845.65021 C2731.87561,1845.77138 2731.40437,1845.83613 2730.91783,1845.83613 C2730.57413,1845.83613 2730.23994,1845.80295 2729.91431,1845.74104 C2730.59306,1847.8473 2732.56301,1849.38002 2734.89719,1849.42283 C2733.07161,1850.84468 2730.77156,1851.69223 2728.27247,1851.69223 C2727.84194,1851.69223 2727.41731,1851.66718 2727,1851.61822 C2729.36063,1853.12239 2732.16453,1854 2735.17689,1854 C2744.9884,1854 2750.35369,1845.92176 2750.35369,1838.91612 C2750.35369,1838.68625 2750.34855,1838.45761 2750.33828,1838.23029 C2751.38041,1837.48284 2752.28483,1836.54909 2753,1835.48594 C2752.04337,1835.90759 2751.01531,1836.19256 2749.93628,1836.32073 Z" id="twitter-black"></path>
        </g>
    </g>
</svg>