<svg width="26" height="21" viewBox="0 0 26 21" xmlns="http://www.w3.org/2000/svg"><title>twitter-white</title><path d="M22.936 3.32A5.323 5.323 0 0 0 25.282.389a10.723 10.723 0 0 1-3.388 1.286A5.343 5.343 0 0 0 18.001 0c-2.946 0-5.335 2.374-5.335 5.301 0 .416.048.82.139 1.209A15.175 15.175 0 0 1 1.81.97a5.29 5.29 0 0 0 1.65 7.078 5.338 5.338 0 0 1-2.415-.663v.067c0 2.569 1.838 4.711 4.278 5.198a5.372 5.372 0 0 1-2.409.091 5.335 5.335 0 0 0 4.983 3.682 10.745 10.745 0 0 1-6.625 2.27c-.43 0-.855-.026-1.272-.075A15.166 15.166 0 0 0 8.177 21c9.811 0 15.177-8.078 15.177-15.084 0-.23-.005-.458-.016-.686A10.805 10.805 0 0 0 26 2.486c-.957.422-1.985.707-3.064.835z" fill="#FFF" fill-rule="evenodd"/></svg>