<svg width="264" height="220" viewBox="0 0 264 220" xmlns="http://www.w3.org/2000/svg"><title>services-design</title><g fill="none" fill-rule="evenodd"><path fill="#E6E6E6" d="M84 220h96v-8H84z"/><path fill="#B3B3B3" d="M98 192h68l4 20H94z"/><path fill="#CCC" d="M158 192h8l4 20h-20z"/><path fill="#E6E6E6" d="M0 166h264v26H0z"/><rect fill="#666" width="264" height="166" rx="6"/><path fill="#F1FAFC" d="M10 10h244v146H10z"/><path fill="#A8CE9F" d="M68 16h88v42H68zm92 92h88v42h-88z"/><path fill="#E66651" d="M68 62h42v42H68z"/><path fill="#55ABBC" d="M114 62h42v42h-42z"/><path fill="#E7C364" d="M206 62h42v42h-42z"/><path fill="#55ABBC" d="M206 16h42v42h-42z"/><path fill="#E66651" d="M160 16h42v88h-42z"/><path fill="#E7C364" d="M68 108h42v42H68z"/><path fill="#EE931B" d="M114 108h42v42h-42z"/><circle fill="#666" cx="22" cy="26" r="6"/><path fill="#666" d="M16 42h34v2H16zm0 4h24v1H16zm14-22h24v1H30zM16 56h28v2H16zm0 4h14v1H16zm0 10h22v2H16zm0 4h34v1H16zm0 10h18v2H16zm0 4h30v1H16zm0 10h34v2H16zm0 4h22v1H16zm0 10h26v2H16zm0 4h32v1H16zm0 10h16v2H16zm0 4h18v1H16z"/></g></svg>