<svg width="352" height="204" viewBox="0 0 352 204" xmlns="http://www.w3.org/2000/svg"><title>services-development</title><g fill="none" fill-rule="evenodd"><path fill="#E6E6E6" d="M0 188h352v10H0z"/><path fill="#B3B3B3" d="M0 198h352v6H0z"/><rect fill="#666" x="28" width="294" height="186" rx="6"/><path fill="#FFF" d="M44 16h262v154H44z"/><path fill="#F1FAFC" d="M174 16h132v154H174z"/><path fill="#A8CE9F" d="M174 16h132v18H174z"/><path fill="#FFF" d="M212 26h24v4h-24zm28 0h24v4h-24zm28 0h24v4h-24zm-84 0h24v4h-24z"/><path fill="#A8CE9F" d="M228 148h24v8h-24z"/><path fill="#666" d="M224 116h32v4h-32zm0 8h32v4h-32zm0 8h32v4h-32zm0 8h32v4h-32z"/><path fill="#55ABBC" d="M184 44h112v42H184z"/><circle fill="#A8CE9F" cx="240" cy="102" r="8"/><path fill="#A8CE9F" d="M188 148h24v8h-24z"/><path fill="#666" d="M184 116h32v4h-32zm0 8h32v4h-32zm0 8h32v4h-32zm0 8h32v4h-32z"/><circle fill="#A8CE9F" cx="200" cy="102" r="8"/><path fill="#A8CE9F" d="M268 148h24v8h-24z"/><path fill="#666" d="M264 116h32v4h-32zm0 8h32v4h-32zm0 8h32v4h-32zm0 8h32v4h-32z"/><circle fill="#A8CE9F" cx="280" cy="102" r="8"/><path fill="#666" d="M58 38h36v4H58zm18 6h52v4H76zm0 6h46v4H76zm0 6h37v4H76zM58 78h36v4H58zm18 6h79v4H76zm0 6h75v4H76zm0 6h37v4H76zm-18 22h36v4H58zm18 6h93v4H76zm0 6h83v4H76zm0 6h46v4H76z"/></g></svg>