<svg width="382" height="204" viewBox="0 0 382 204" xmlns="http://www.w3.org/2000/svg" xmlns:xlink="http://www.w3.org/1999/xlink"><title>services-strategy</title><defs><ellipse id="a" cx="42" cy="63" rx="14" ry="9"/><mask id="v" x="0" y="0" width="28" height="18" fill="#fff"><use xlink:href="#a"/></mask><ellipse id="b" cx="33" cy="153" rx="13" ry="7"/><mask id="w" x="0" y="0" width="26" height="14" fill="#fff"><use xlink:href="#b"/></mask><ellipse id="c" cx="28" cy="33" rx="6" ry="5"/><mask id="x" x="0" y="0" width="12" height="10" fill="#fff"><use xlink:href="#c"/></mask><ellipse id="d" cx="48" cy="36" rx="8" ry="4"/><mask id="y" x="0" y="0" width="16" height="8" fill="#fff"><use xlink:href="#d"/></mask><ellipse id="e" cx="28" cy="105" rx="8" ry="5"/><mask id="z" x="0" y="0" width="16" height="10" fill="#fff"><use xlink:href="#e"/></mask><ellipse id="f" cx="102" cy="22" rx="8" ry="4"/><mask id="A" x="0" y="0" width="16" height="8" fill="#fff"><use xlink:href="#f"/></mask><ellipse id="g" cx="111" cy="44" rx="11" ry="8"/><mask id="B" x="0" y="0" width="22" height="16" fill="#fff"><use xlink:href="#g"/></mask><ellipse id="h" cx="85" cy="143" rx="17" ry="7"/><mask id="C" x="0" y="0" width="34" height="14" fill="#fff"><use xlink:href="#h"/></mask><ellipse id="i" cx="64" cy="171" rx="12" ry="5"/><mask id="D" x="0" y="0" width="24" height="10" fill="#fff"><use xlink:href="#i"/></mask><ellipse id="j" cx="125" cy="114" rx="7" ry="4"/><mask id="E" x="0" y="0" width="14" height="8" fill="#fff"><use xlink:href="#j"/></mask><ellipse id="k" cx="145" cy="27" rx="9" ry="5"/><mask id="F" x="0" y="0" width="18" height="10" fill="#fff"><use xlink:href="#k"/></mask><ellipse id="l" cx="91" cy="89" rx="25" ry="17"/><mask id="G" x="0" y="0" width="50" height="34" fill="#fff"><use xlink:href="#l"/></mask><path id="m" d="M176 24h48v40h-48z"/><mask id="H" x="0" y="0" width="48" height="40" fill="#fff"><use xlink:href="#m"/></mask><path id="n" d="M172 154h16v10h-16z"/><mask id="I" x="0" y="0" width="16" height="10" fill="#fff"><use xlink:href="#n"/></mask><path id="o" d="M196 154h16v10h-16z"/><mask id="J" x="0" y="0" width="16" height="10" fill="#fff"><use xlink:href="#o"/></mask><path id="p" d="M210 168h14v14h-14z"/><mask id="K" x="0" y="0" width="14" height="14" fill="#fff"><use xlink:href="#p"/></mask><path id="q" d="M222 154h16v10h-16z"/><mask id="L" x="0" y="0" width="16" height="10" fill="#fff"><use xlink:href="#q"/></mask><path id="r" d="M250 154h16v10h-16z"/><mask id="M" x="0" y="0" width="16" height="10" fill="#fff"><use xlink:href="#r"/></mask><path id="s" d="M276 160h20v12h-20z"/><mask id="N" x="0" y="0" width="20" height="12" fill="#fff"><use xlink:href="#s"/></mask><circle id="t" cx="200" cy="42" r="8"/><mask id="O" x="0" y="0" width="16" height="16" fill="#fff"><use xlink:href="#t"/></mask><path d="M218 64c0-6.627-8.059-12-18-12s-18 5.373-18 12h36z" id="u"/><mask id="P" x="0" y="0" width="36" height="12" fill="#fff"><use xlink:href="#u"/></mask></defs><g fill="none" fill-rule="evenodd"><path fill="#818181" d="M0 0h312v204H0z"/><path fill="#FFF" d="M8 8h296v188H8z"/><path fill="#F9C" d="M322 20h16v16h-16zm0 66h16v16h-16zm0 22h16v16h-16zm22-22h16v16h-16zm0 22h16v16h-16zm22 0h16v16h-16zm0-44h16v16h-16z"/><path fill="#FCEE21" d="M366 86h16v16h-16zm-44-22h16v16h-16zm0-22h16v16h-16zm22 22h16v16h-16zm0-22h16v16h-16zm22 0h16v16h-16zm-22-22h16v16h-16zM126 46h16v16h-16z"/><use stroke="#000" mask="url(#v)" stroke-width="4" fill="#A8CE9F" xlink:href="#a"/><use stroke="#000" mask="url(#w)" stroke-width="4" fill="#E7C364" xlink:href="#b"/><use stroke="#000" mask="url(#x)" stroke-width="4" fill="#FFF" xlink:href="#c"/><use stroke="#000" mask="url(#y)" stroke-width="4" fill="#FFF" xlink:href="#d"/><use stroke="#000" mask="url(#z)" stroke-width="4" fill="#FFF" xlink:href="#e"/><use stroke="#000" mask="url(#A)" stroke-width="4" fill="#FFF" xlink:href="#f"/><use stroke="#000" mask="url(#B)" stroke-width="4" fill="#FFF" xlink:href="#g"/><use stroke="#000" mask="url(#C)" stroke-width="4" fill="#FFF" xlink:href="#h"/><use stroke="#000" mask="url(#D)" stroke-width="4" fill="#FFF" xlink:href="#i"/><use stroke="#000" mask="url(#E)" stroke-width="4" fill="#FFF" xlink:href="#j"/><use stroke="#000" mask="url(#F)" stroke-width="4" fill="#A8CE9F" xlink:href="#k"/><use stroke="#000" mask="url(#G)" stroke-width="4" fill="#A8CE9F" xlink:href="#l"/><path fill="#FCEE21" d="M134 114h16v16h-16zm138-20h16v16h-16z"/><use stroke="#000" mask="url(#H)" stroke-width="4" fill="#55ABBC" xlink:href="#m"/><use stroke="#000" mask="url(#I)" stroke-width="4" fill="#E7C364" xlink:href="#n"/><use stroke="#000" mask="url(#J)" stroke-width="4" fill="#E7C364" xlink:href="#o"/><use stroke="#000" mask="url(#K)" stroke-width="4" fill="#E7C364" xlink:href="#p"/><use stroke="#000" mask="url(#L)" stroke-width="4" fill="#E7C364" xlink:href="#q"/><use stroke="#000" mask="url(#M)" stroke-width="4" fill="#E7C364" xlink:href="#r"/><use stroke="#000" mask="url(#N)" stroke-width="4" fill="#E7C364" xlink:href="#s"/><path fill="#000" d="M176 16h58v4h-58zm52 8h52v10h-52zm0 14h32v6h-32zm0 8h66v2h-66zm-46 24h32v4h-32zm0 8h44v2h-44zm56-2h24v2h-24zm38 0h12v2h-12zm-4 6h20v2h-20zm4 6h14v2h-14zm-42-6h31v2h-31z"/><path fill="#000" d="M234 82h30v2h-30zm-8 8h38v2h-38zm-40-8h32v2h-32zm0 8h26v2h-26zm-6 16h54v2h-54zm58 4h30v2h-30zm-56 10h26v2h-26zm16-8h32v2h-32zm18 8h26v2h-26zm36 0h34v2h-34zm-54 10h14v2h-14zm-86 40h14v2h-14zm-94-6h14v2H18zm26-74h14v2H44zm20-42h14v2H64zm124 111h8v1h-8zm24 0h10v1h-10zm26 0h12v1h-12zm-36 15h8v1h-8zm0-10h1v10h-1zm29 0h1v10h-1zm12-4h1v8h-1zm-19 14h8v1h-8zm20-7h32v1h-32zm-16-35h48v2h-48zm0-82h58v2h-58zm0 4h48v2h-48z"/><use stroke="#000" mask="url(#O)" stroke-width="4" fill="#FFF" xlink:href="#t"/><use stroke="#000" mask="url(#P)" stroke-width="4" fill="#FFF" xlink:href="#u"/><path d="M45.5 38.5l-3 16m-10-21l9 3m-4 34l-7 30m18-31l24 9m-37 24l9-8m-17 14l5 38m0-38l37 32m15-36v32m15 3l22-23m-43 32l-11 18m27-19l20 19m-20-93l13-22m-54-14l16 7m34-20l5 12m10 3l20-10" stroke="#000" stroke-linecap="square"/><path fill="#FCEE21" d="M48 114h16v16H48z"/></g></svg>