<?xml version="1.0" encoding="UTF-8" standalone="no"?>
<svg width="264px" height="220px" viewBox="0 0 264 220" version="1.1" xmlns="http://www.w3.org/2000/svg" xmlns:xlink="http://www.w3.org/1999/xlink">
    <!-- Generator: Sketch 3.8.3 (29802) - http://www.bohemiancoding.com/sketch -->
    <title>services-design</title>
    <desc>Created with Sketch.</desc>
    <defs></defs>
    <g id="Page-1" stroke="none" stroke-width="1" fill="none" fill-rule="evenodd">
        <g id="images-for-export" transform="translate(-2422.000000, -416.000000)">
            <g id="services-design" transform="translate(2422.000000, 416.000000)">
                <rect id="Rectangle-750" fill="#E6E6E6" transform="translate(132.000000, 216.000000) scale(1, -1) translate(-132.000000, -216.000000) " x="84" y="212" width="96" height="8"></rect>
                <polygon id="Rectangle-778" fill="#B3B3B3" points="98 192 166 192 170 212 94 212"></polygon>
                <polygon id="Rectangle-778" fill="#CCCCCC" points="158 192 166 192 170 212 150 212"></polygon>
                <rect id="Rectangle-750" fill="#E6E6E6" x="0" y="166" width="264" height="26"></rect>
                <rect id="Rectangle-750" fill="#666666" x="0" y="0" width="264" height="166" rx="6"></rect>
                <rect id="Rectangle-752" fill="#F1FAFC" x="10" y="10" width="244" height="146"></rect>
                <rect id="Rectangle-753" fill="#A8CE9F" x="68" y="16" width="88" height="42"></rect>
                <rect id="Rectangle-753" fill="#A8CE9F" x="160" y="108" width="88" height="42"></rect>
                <rect id="Rectangle-753" fill="#E66651" x="68" y="62" width="42" height="42"></rect>
                <rect id="Rectangle-753" fill="#55ABBC" x="114" y="62" width="42" height="42"></rect>
                <rect id="Rectangle-753" fill="#E7C364" x="206" y="62" width="42" height="42"></rect>
                <rect id="Rectangle-753" fill="#55ABBC" x="206" y="16" width="42" height="42"></rect>
                <rect id="Rectangle-753" fill="#E66651" x="160" y="16" width="42" height="88"></rect>
                <rect id="Rectangle-753" fill="#E7C364" x="68" y="108" width="42" height="42"></rect>
                <rect id="Rectangle-753" fill="#EE931B" x="114" y="108" width="42" height="42"></rect>
                <circle id="Oval-4" fill="#666666" cx="22" cy="26" r="6"></circle>
                <rect id="Rectangle-762" fill="#666666" x="16" y="42" width="34" height="2"></rect>
                <rect id="Rectangle-762" fill="#666666" x="16" y="46" width="24" height="1"></rect>
                <rect id="Rectangle-762" fill="#666666" x="30" y="24" width="24" height="1"></rect>
                <rect id="Rectangle-762" fill="#666666" x="16" y="56" width="28" height="2"></rect>
                <rect id="Rectangle-762" fill="#666666" x="16" y="60" width="14" height="1"></rect>
                <rect id="Rectangle-762" fill="#666666" x="16" y="70" width="22" height="2"></rect>
                <rect id="Rectangle-762" fill="#666666" x="16" y="74" width="34" height="1"></rect>
                <rect id="Rectangle-762" fill="#666666" x="16" y="84" width="18" height="2"></rect>
                <rect id="Rectangle-762" fill="#666666" x="16" y="88" width="30" height="1"></rect>
                <rect id="Rectangle-762" fill="#666666" x="16" y="98" width="34" height="2"></rect>
                <rect id="Rectangle-762" fill="#666666" x="16" y="102" width="22" height="1"></rect>
                <rect id="Rectangle-762" fill="#666666" x="16" y="112" width="26" height="2"></rect>
                <rect id="Rectangle-762" fill="#666666" x="16" y="116" width="32" height="1"></rect>
                <rect id="Rectangle-762" fill="#666666" x="16" y="126" width="16" height="2"></rect>
                <rect id="Rectangle-762" fill="#666666" x="16" y="130" width="18" height="1"></rect>
            </g>
        </g>
    </g>
</svg>