<?xml version="1.0" encoding="UTF-8" standalone="no"?>
<svg width="352px" height="204px" viewBox="0 0 352 204" version="1.1" xmlns="http://www.w3.org/2000/svg" xmlns:xlink="http://www.w3.org/1999/xlink">
    <!-- Generator: Sketch 3.8.3 (29802) - http://www.bohemiancoding.com/sketch -->
    <title>services-development</title>
    <desc>Created with Sketch.</desc>
    <defs></defs>
    <g id="Page-1" stroke="none" stroke-width="1" fill="none" fill-rule="evenodd">
        <g id="images-for-export" transform="translate(-2384.000000, -744.000000)">
            <g id="services-development" transform="translate(2384.000000, 744.000000)">
                <rect id="Rectangle-750" fill="#E6E6E6" x="0" y="188" width="352" height="10"></rect>
                <rect id="Rectangle-750" fill="#B3B3B3" x="0" y="198" width="352" height="6"></rect>
                <rect id="Rectangle-750" fill="#666666" x="28" y="0" width="294" height="186" rx="6"></rect>
                <rect id="Rectangle-752" fill="#FFFFFF" x="44" y="16" width="262" height="154"></rect>
                <rect id="Rectangle-752" fill="#F1FAFC" x="174" y="16" width="132" height="154"></rect>
                <rect id="Rectangle-753" fill="#A8CE9F" x="174" y="16" width="132" height="18"></rect>
                <rect id="Rectangle-753" fill="#FFFFFF" x="212" y="26" width="24" height="4"></rect>
                <rect id="Rectangle-753" fill="#FFFFFF" x="240" y="26" width="24" height="4"></rect>
                <rect id="Rectangle-753" fill="#FFFFFF" x="268" y="26" width="24" height="4"></rect>
                <rect id="Rectangle-753" fill="#FFFFFF" x="184" y="26" width="24" height="4"></rect>
                <rect id="Rectangle-753" fill="#A8CE9F" x="228" y="148" width="24" height="8"></rect>
                <rect id="Rectangle-753" fill="#666666" x="224" y="116" width="32" height="4"></rect>
                <rect id="Rectangle-753" fill="#666666" x="224" y="124" width="32" height="4"></rect>
                <rect id="Rectangle-753" fill="#666666" x="224" y="132" width="32" height="4"></rect>
                <rect id="Rectangle-753" fill="#666666" x="224" y="140" width="32" height="4"></rect>
                <rect id="Rectangle-753" fill="#55ABBC" x="184" y="44" width="112" height="42"></rect>
                <circle id="Oval-4" fill="#A8CE9F" cx="240" cy="102" r="8"></circle>
                <rect id="Rectangle-753" fill="#A8CE9F" x="188" y="148" width="24" height="8"></rect>
                <rect id="Rectangle-753" fill="#666666" x="184" y="116" width="32" height="4"></rect>
                <rect id="Rectangle-753" fill="#666666" x="184" y="124" width="32" height="4"></rect>
                <rect id="Rectangle-753" fill="#666666" x="184" y="132" width="32" height="4"></rect>
                <rect id="Rectangle-753" fill="#666666" x="184" y="140" width="32" height="4"></rect>
                <circle id="Oval-4" fill="#A8CE9F" cx="200" cy="102" r="8"></circle>
                <rect id="Rectangle-753" fill="#A8CE9F" x="268" y="148" width="24" height="8"></rect>
                <rect id="Rectangle-753" fill="#666666" x="264" y="116" width="32" height="4"></rect>
                <rect id="Rectangle-753" fill="#666666" x="264" y="124" width="32" height="4"></rect>
                <rect id="Rectangle-753" fill="#666666" x="264" y="132" width="32" height="4"></rect>
                <rect id="Rectangle-753" fill="#666666" x="264" y="140" width="32" height="4"></rect>
                <circle id="Oval-4" fill="#A8CE9F" cx="280" cy="102" r="8"></circle>
                <rect id="Rectangle-762" fill="#666666" x="58" y="38" width="36" height="4"></rect>
                <rect id="Rectangle-762" fill="#666666" x="76" y="44" width="52" height="4"></rect>
                <rect id="Rectangle-762" fill="#666666" x="76" y="50" width="46" height="4"></rect>
                <rect id="Rectangle-762" fill="#666666" x="76" y="56" width="37" height="4"></rect>
                <rect id="Rectangle-762" fill="#666666" x="58" y="78" width="36" height="4"></rect>
                <rect id="Rectangle-762" fill="#666666" x="76" y="84" width="79" height="4"></rect>
                <rect id="Rectangle-762" fill="#666666" x="76" y="90" width="75" height="4"></rect>
                <rect id="Rectangle-762" fill="#666666" x="76" y="96" width="37" height="4"></rect>
                <rect id="Rectangle-762" fill="#666666" x="58" y="118" width="36" height="4"></rect>
                <rect id="Rectangle-762" fill="#666666" x="76" y="124" width="93" height="4"></rect>
                <rect id="Rectangle-762" fill="#666666" x="76" y="130" width="83" height="4"></rect>
                <rect id="Rectangle-762" fill="#666666" x="76" y="136" width="46" height="4"></rect>
            </g>
        </g>
    </g>
</svg>