<?xml version="1.0" encoding="UTF-8" standalone="no"?>
<svg width="382px" height="204px" viewBox="0 0 382 204" version="1.1" xmlns="http://www.w3.org/2000/svg" xmlns:xlink="http://www.w3.org/1999/xlink">
    <!-- Generator: Sketch 3.8.3 (29802) - http://www.bohemiancoding.com/sketch -->
    <title>services-strategy</title>
    <desc>Created with Sketch.</desc>
    <defs>
        <ellipse id="path-1" cx="42" cy="63" rx="14" ry="9"></ellipse>
        <mask id="mask-2" maskContentUnits="userSpaceOnUse" maskUnits="objectBoundingBox" x="0" y="0" width="28" height="18" fill="white">
            <use xlink:href="#path-1"></use>
        </mask>
        <ellipse id="path-3" cx="33" cy="153" rx="13" ry="7"></ellipse>
        <mask id="mask-4" maskContentUnits="userSpaceOnUse" maskUnits="objectBoundingBox" x="0" y="0" width="26" height="14" fill="white">
            <use xlink:href="#path-3"></use>
        </mask>
        <ellipse id="path-5" cx="28" cy="33" rx="6" ry="5"></ellipse>
        <mask id="mask-6" maskContentUnits="userSpaceOnUse" maskUnits="objectBoundingBox" x="0" y="0" width="12" height="10" fill="white">
            <use xlink:href="#path-5"></use>
        </mask>
        <ellipse id="path-7" cx="48" cy="36" rx="8" ry="4"></ellipse>
        <mask id="mask-8" maskContentUnits="userSpaceOnUse" maskUnits="objectBoundingBox" x="0" y="0" width="16" height="8" fill="white">
            <use xlink:href="#path-7"></use>
        </mask>
        <ellipse id="path-9" cx="28" cy="105" rx="8" ry="5"></ellipse>
        <mask id="mask-10" maskContentUnits="userSpaceOnUse" maskUnits="objectBoundingBox" x="0" y="0" width="16" height="10" fill="white">
            <use xlink:href="#path-9"></use>
        </mask>
        <ellipse id="path-11" cx="102" cy="22" rx="8" ry="4"></ellipse>
        <mask id="mask-12" maskContentUnits="userSpaceOnUse" maskUnits="objectBoundingBox" x="0" y="0" width="16" height="8" fill="white">
            <use xlink:href="#path-11"></use>
        </mask>
        <ellipse id="path-13" cx="111" cy="44" rx="11" ry="8"></ellipse>
        <mask id="mask-14" maskContentUnits="userSpaceOnUse" maskUnits="objectBoundingBox" x="0" y="0" width="22" height="16" fill="white">
            <use xlink:href="#path-13"></use>
        </mask>
        <ellipse id="path-15" cx="85" cy="143" rx="17" ry="7"></ellipse>
        <mask id="mask-16" maskContentUnits="userSpaceOnUse" maskUnits="objectBoundingBox" x="0" y="0" width="34" height="14" fill="white">
            <use xlink:href="#path-15"></use>
        </mask>
        <ellipse id="path-17" cx="64" cy="171" rx="12" ry="5"></ellipse>
        <mask id="mask-18" maskContentUnits="userSpaceOnUse" maskUnits="objectBoundingBox" x="0" y="0" width="24" height="10" fill="white">
            <use xlink:href="#path-17"></use>
        </mask>
        <ellipse id="path-19" cx="125" cy="114" rx="7" ry="4"></ellipse>
        <mask id="mask-20" maskContentUnits="userSpaceOnUse" maskUnits="objectBoundingBox" x="0" y="0" width="14" height="8" fill="white">
            <use xlink:href="#path-19"></use>
        </mask>
        <ellipse id="path-21" cx="145" cy="27" rx="9" ry="5"></ellipse>
        <mask id="mask-22" maskContentUnits="userSpaceOnUse" maskUnits="objectBoundingBox" x="0" y="0" width="18" height="10" fill="white">
            <use xlink:href="#path-21"></use>
        </mask>
        <ellipse id="path-23" cx="91" cy="89" rx="25" ry="17"></ellipse>
        <mask id="mask-24" maskContentUnits="userSpaceOnUse" maskUnits="objectBoundingBox" x="0" y="0" width="50" height="34" fill="white">
            <use xlink:href="#path-23"></use>
        </mask>
        <rect id="path-25" x="176" y="24" width="48" height="40"></rect>
        <mask id="mask-26" maskContentUnits="userSpaceOnUse" maskUnits="objectBoundingBox" x="0" y="0" width="48" height="40" fill="white">
            <use xlink:href="#path-25"></use>
        </mask>
        <rect id="path-27" x="172" y="154" width="16" height="10"></rect>
        <mask id="mask-28" maskContentUnits="userSpaceOnUse" maskUnits="objectBoundingBox" x="0" y="0" width="16" height="10" fill="white">
            <use xlink:href="#path-27"></use>
        </mask>
        <rect id="path-29" x="196" y="154" width="16" height="10"></rect>
        <mask id="mask-30" maskContentUnits="userSpaceOnUse" maskUnits="objectBoundingBox" x="0" y="0" width="16" height="10" fill="white">
            <use xlink:href="#path-29"></use>
        </mask>
        <rect id="path-31" x="210" y="168" width="14" height="14"></rect>
        <mask id="mask-32" maskContentUnits="userSpaceOnUse" maskUnits="objectBoundingBox" x="0" y="0" width="14" height="14" fill="white">
            <use xlink:href="#path-31"></use>
        </mask>
        <rect id="path-33" x="222" y="154" width="16" height="10"></rect>
        <mask id="mask-34" maskContentUnits="userSpaceOnUse" maskUnits="objectBoundingBox" x="0" y="0" width="16" height="10" fill="white">
            <use xlink:href="#path-33"></use>
        </mask>
        <rect id="path-35" x="250" y="154" width="16" height="10"></rect>
        <mask id="mask-36" maskContentUnits="userSpaceOnUse" maskUnits="objectBoundingBox" x="0" y="0" width="16" height="10" fill="white">
            <use xlink:href="#path-35"></use>
        </mask>
        <rect id="path-37" x="276" y="160" width="20" height="12"></rect>
        <mask id="mask-38" maskContentUnits="userSpaceOnUse" maskUnits="objectBoundingBox" x="0" y="0" width="20" height="12" fill="white">
            <use xlink:href="#path-37"></use>
        </mask>
        <circle id="path-39" cx="200" cy="42" r="8"></circle>
        <mask id="mask-40" maskContentUnits="userSpaceOnUse" maskUnits="objectBoundingBox" x="0" y="0" width="16" height="16" fill="white">
            <use xlink:href="#path-39"></use>
        </mask>
        <path d="M218,64 C218,57.372583 209.941125,52 200,52 C190.058875,52 182,57.372583 182,64 C193.238281,64 206.34375,64 218,64 Z" id="path-41"></path>
        <mask id="mask-42" maskContentUnits="userSpaceOnUse" maskUnits="objectBoundingBox" x="0" y="0" width="36" height="12" fill="white">
            <use xlink:href="#path-41"></use>
        </mask>
    </defs>
    <g id="Page-1" stroke="none" stroke-width="1" fill="none" fill-rule="evenodd">
        <g id="images-for-export" transform="translate(-2366.000000, -106.000000)">
            <g id="services-strategy" transform="translate(2366.000000, 106.000000)">
                <rect id="Rectangle-818" fill="#818181" x="0" y="0" width="312" height="204"></rect>
                <rect id="Rectangle-818" fill="#FFFFFF" x="8" y="8" width="296" height="188"></rect>
                <rect id="Rectangle-818" fill="#FF99CC" x="322" y="20" width="16" height="16"></rect>
                <rect id="Rectangle-818" fill="#FF99CC" x="322" y="86" width="16" height="16"></rect>
                <rect id="Rectangle-818" fill="#FF99CC" x="322" y="108" width="16" height="16"></rect>
                <rect id="Rectangle-818" fill="#FF99CC" x="344" y="86" width="16" height="16"></rect>
                <rect id="Rectangle-818" fill="#FF99CC" x="344" y="108" width="16" height="16"></rect>
                <rect id="Rectangle-818" fill="#FF99CC" x="366" y="108" width="16" height="16"></rect>
                <rect id="Rectangle-818" fill="#FF99CC" x="366" y="64" width="16" height="16"></rect>
                <rect id="Rectangle-818" fill="#FCEE21" x="366" y="86" width="16" height="16"></rect>
                <rect id="Rectangle-818" fill="#FCEE21" x="322" y="64" width="16" height="16"></rect>
                <rect id="Rectangle-818" fill="#FCEE21" x="322" y="42" width="16" height="16"></rect>
                <rect id="Rectangle-818" fill="#FCEE21" x="344" y="64" width="16" height="16"></rect>
                <rect id="Rectangle-818" fill="#FCEE21" x="344" y="42" width="16" height="16"></rect>
                <rect id="Rectangle-818" fill="#FCEE21" x="366" y="42" width="16" height="16"></rect>
                <rect id="Rectangle-818" fill="#FCEE21" x="344" y="20" width="16" height="16"></rect>
                <rect id="Rectangle-818" fill="#FCEE21" x="126" y="46" width="16" height="16"></rect>
                <use id="Oval-8" stroke="#000000" mask="url(#mask-2)" stroke-width="4" fill="#A8CE9F" xlink:href="#path-1"></use>
                <use id="Oval-8" stroke="#000000" mask="url(#mask-4)" stroke-width="4" fill="#E7C364" xlink:href="#path-3"></use>
                <use id="Oval-8" stroke="#000000" mask="url(#mask-6)" stroke-width="4" fill="#FFFFFF" xlink:href="#path-5"></use>
                <use id="Oval-8" stroke="#000000" mask="url(#mask-8)" stroke-width="4" fill="#FFFFFF" xlink:href="#path-7"></use>
                <use id="Oval-8" stroke="#000000" mask="url(#mask-10)" stroke-width="4" fill="#FFFFFF" xlink:href="#path-9"></use>
                <use id="Oval-8" stroke="#000000" mask="url(#mask-12)" stroke-width="4" fill="#FFFFFF" xlink:href="#path-11"></use>
                <use id="Oval-8" stroke="#000000" mask="url(#mask-14)" stroke-width="4" fill="#FFFFFF" xlink:href="#path-13"></use>
                <use id="Oval-8" stroke="#000000" mask="url(#mask-16)" stroke-width="4" fill="#FFFFFF" xlink:href="#path-15"></use>
                <use id="Oval-8" stroke="#000000" mask="url(#mask-18)" stroke-width="4" fill="#FFFFFF" xlink:href="#path-17"></use>
                <use id="Oval-8" stroke="#000000" mask="url(#mask-20)" stroke-width="4" fill="#FFFFFF" xlink:href="#path-19"></use>
                <use id="Oval-8" stroke="#000000" mask="url(#mask-22)" stroke-width="4" fill="#A8CE9F" xlink:href="#path-21"></use>
                <use id="Oval-8" stroke="#000000" mask="url(#mask-24)" stroke-width="4" fill="#A8CE9F" xlink:href="#path-23"></use>
                <rect id="Rectangle-818" fill="#FCEE21" x="134" y="114" width="16" height="16"></rect>
                <rect id="Rectangle-818" fill="#FCEE21" x="272" y="94" width="16" height="16"></rect>
                <use id="Rectangle-818" stroke="#000000" mask="url(#mask-26)" stroke-width="4" fill="#55ABBC" xlink:href="#path-25"></use>
                <use id="Rectangle-818" stroke="#000000" mask="url(#mask-28)" stroke-width="4" fill="#E7C364" xlink:href="#path-27"></use>
                <use id="Rectangle-818" stroke="#000000" mask="url(#mask-30)" stroke-width="4" fill="#E7C364" xlink:href="#path-29"></use>
                <use id="Rectangle-818" stroke="#000000" mask="url(#mask-32)" stroke-width="4" fill="#E7C364" xlink:href="#path-31"></use>
                <use id="Rectangle-818" stroke="#000000" mask="url(#mask-34)" stroke-width="4" fill="#E7C364" xlink:href="#path-33"></use>
                <use id="Rectangle-818" stroke="#000000" mask="url(#mask-36)" stroke-width="4" fill="#E7C364" xlink:href="#path-35"></use>
                <use id="Rectangle-818" stroke="#000000" mask="url(#mask-38)" stroke-width="4" fill="#E7C364" xlink:href="#path-37"></use>
                <rect id="Rectangle-818" fill="#000000" x="176" y="16" width="58" height="4"></rect>
                <rect id="Rectangle-818" fill="#000000" x="228" y="24" width="52" height="10"></rect>
                <rect id="Rectangle-818" fill="#000000" x="228" y="38" width="32" height="6"></rect>
                <rect id="Rectangle-818" fill="#000000" x="228" y="46" width="66" height="2"></rect>
                <rect id="Rectangle-818" fill="#000000" x="182" y="70" width="32" height="4"></rect>
                <rect id="Rectangle-818" fill="#000000" x="182" y="78" width="44" height="2"></rect>
                <rect id="Rectangle-818" fill="#000000" x="238" y="76" width="24" height="2"></rect>
                <rect id="Rectangle-818" fill="#000000" x="276" y="76" width="12" height="2"></rect>
                <rect id="Rectangle-818" fill="#000000" x="272" y="82" width="20" height="2"></rect>
                <rect id="Rectangle-818" fill="#000000" x="276" y="88" width="14" height="2"></rect>
                <rect id="Rectangle-818" fill="#000000" x="234" y="82" width="31" height="2"></rect>
                <rect id="Rectangle-818" fill="#000000" x="234" y="82" width="30" height="2"></rect>
                <rect id="Rectangle-818" fill="#000000" x="226" y="90" width="38" height="2"></rect>
                <rect id="Rectangle-818" fill="#000000" x="186" y="82" width="32" height="2"></rect>
                <rect id="Rectangle-818" fill="#000000" x="186" y="90" width="26" height="2"></rect>
                <rect id="Rectangle-818" fill="#000000" x="180" y="106" width="54" height="2"></rect>
                <rect id="Rectangle-818" fill="#000000" x="238" y="110" width="30" height="2"></rect>
                <rect id="Rectangle-818" fill="#000000" x="182" y="120" width="26" height="2"></rect>
                <rect id="Rectangle-818" fill="#000000" x="198" y="112" width="32" height="2"></rect>
                <rect id="Rectangle-818" fill="#000000" x="216" y="120" width="26" height="2"></rect>
                <rect id="Rectangle-818" fill="#000000" x="252" y="120" width="34" height="2"></rect>
                <rect id="Rectangle-818" fill="#000000" x="198" y="130" width="14" height="2"></rect>
                <rect id="Rectangle-818" fill="#000000" x="112" y="170" width="14" height="2"></rect>
                <rect id="Rectangle-818" fill="#000000" x="18" y="164" width="14" height="2"></rect>
                <rect id="Rectangle-818" fill="#000000" x="44" y="90" width="14" height="2"></rect>
                <rect id="Rectangle-818" fill="#000000" x="64" y="48" width="14" height="2"></rect>
                <rect id="Rectangle-818" fill="#000000" x="188" y="159" width="8" height="1"></rect>
                <rect id="Rectangle-818" fill="#000000" x="212" y="159" width="10" height="1"></rect>
                <rect id="Rectangle-818" fill="#000000" x="238" y="159" width="12" height="1"></rect>
                <rect id="Rectangle-818" fill="#000000" x="202" y="174" width="8" height="1"></rect>
                <rect id="Rectangle-818" fill="#000000" x="202" y="164" width="1" height="10"></rect>
                <rect id="Rectangle-818" fill="#000000" x="231" y="164" width="1" height="10"></rect>
                <rect id="Rectangle-818" fill="#000000" x="243" y="160" width="1" height="8"></rect>
                <rect id="Rectangle-818" fill="#000000" x="224" y="174" width="8" height="1"></rect>
                <rect id="Rectangle-818" fill="#000000" x="244" y="167" width="32" height="1"></rect>
                <rect id="Rectangle-818" fill="#000000" x="228" y="132" width="48" height="2"></rect>
                <rect id="Rectangle-818" fill="#000000" x="228" y="50" width="58" height="2"></rect>
                <rect id="Rectangle-818" fill="#000000" x="228" y="54" width="48" height="2"></rect>
                <use id="Oval-8" stroke="#000000" mask="url(#mask-40)" stroke-width="4" fill="#FFFFFF" xlink:href="#path-39"></use>
                <use id="Oval-8" stroke="#000000" mask="url(#mask-42)" stroke-width="4" fill="#FFFFFF" xlink:href="#path-41"></use>
                <path d="M45.5,38.5 L42.5,54.5" id="Line" stroke="#000000" stroke-linecap="square"></path>
                <path d="M32.5,33.5 L41.5,36.5" id="Line" stroke="#000000" stroke-linecap="square"></path>
                <path d="M37.5,70.5 L30.5,100.5" id="Line" stroke="#000000" stroke-linecap="square"></path>
                <path d="M48.5,69.5 L72.5,78.5" id="Line" stroke="#000000" stroke-linecap="square"></path>
                <path d="M35.5,102.5 L44.5,94.5" id="Line" stroke="#000000" stroke-linecap="square"></path>
                <path d="M27.5,108.5 L32.5,146.5" id="Line" stroke="#000000" stroke-linecap="square"></path>
                <path d="M32.5,108.5 L69.5,140.5" id="Line" stroke="#000000" stroke-linecap="square"></path>
                <path d="M84.5,104.5 L84.5,136.5" id="Line" stroke="#000000" stroke-linecap="square"></path>
                <path d="M99.5,139.5 L121.5,116.5" id="Line" stroke="#000000" stroke-linecap="square"></path>
                <path d="M78.5,148.5 L67.5,166.5" id="Line" stroke="#000000" stroke-linecap="square"></path>
                <path d="M94.5,147.5 L114.5,166.5" id="Line" stroke="#000000" stroke-linecap="square"></path>
                <path d="M94.5,73.5 L107.5,51.5" id="Line" stroke="#000000" stroke-linecap="square"></path>
                <path d="M53.5,37.5 L69.5,44.5" id="Line" stroke="#000000" stroke-linecap="square"></path>
                <path d="M103.5,24.5 L108.5,36.5" id="Line" stroke="#000000" stroke-linecap="square"></path>
                <path d="M118.5,39.5 L138.5,29.5" id="Line" stroke="#000000" stroke-linecap="square"></path>
                <rect id="Rectangle-818" fill="#FCEE21" x="48" y="114" width="16" height="16"></rect>
            </g>
        </g>
    </g>
</svg>