<?xml version="1.0" encoding="UTF-8" standalone="no"?>
<svg width="24px" height="24px" viewBox="0 0 24 24" version="1.1" xmlns="http://www.w3.org/2000/svg" xmlns:xlink="http://www.w3.org/1999/xlink">
    <!-- Generator: Sketch 3.8.3 (29802) - http://www.bohemiancoding.com/sketch -->
    <title>facebook</title>
    <desc>Created with Sketch.</desc>
    <defs></defs>
    <g id="Symbols" stroke="none" stroke-width="1" fill="none" fill-rule="evenodd">
        <g id="footer-global" transform="translate(-529.000000, -149.000000)" fill="#FFFFFF">
            <g id="Contact">
                <path d="M531.4,148.999963 C530.2,148.999963 529,150.200052 529,151.400052 L529,170.600052 C529,171.800052 530.2,173.000052 531.4,173.000052 L541.81916,173.000052 L541.81916,163.705991 L538.691524,163.705991 L538.691524,160.083865 L541.81916,160.083865 L541.81916,157.412682 C541.81916,154.312743 543.712413,152.624786 546.477836,152.624786 C547.802411,152.624786 548.940845,152.723432 549.272754,152.767495 L549.272754,156.007085 L547.354681,156.007984 C545.850798,156.007984 545.559625,156.722608 545.559625,157.771298 L545.559625,160.083865 L549.146321,160.083865 L548.679257,163.705991 L545.559625,163.705991 L545.559625,173.000052 L550.6,173.000052 C551.8,173.000052 553,171.800052 553,170.600052 L553,151.400052 C553,150.200052 551.8,148.999963 550.6,148.999963 L531.4,148.999963 L531.4,148.999963 Z" id="facebook"></path>
            </g>
        </g>
    </g>
</svg>