<?xml version="1.0" encoding="UTF-8" standalone="no"?>
<svg width="28px" height="29px" viewBox="0 0 28 29" version="1.1" xmlns="http://www.w3.org/2000/svg" xmlns:xlink="http://www.w3.org/1999/xlink">
    <!-- Generator: Sketch 3.8.3 (29802) - http://www.bohemiancoding.com/sketch -->
    <title>monitor</title>
    <desc>Created with Sketch.</desc>
    <defs>
        <rect id="path-1" x="0" y="0" width="32" height="32"></rect>
        <rect id="path-3" x="0" y="0" width="32" height="32"></rect>
    </defs>
    <g id="Symbols" stroke="none" stroke-width="1" fill="none" fill-rule="evenodd">
        <g id="footer-global" transform="translate(-63.000000, -147.000000)">
            <g id="Contact">
                <g id="monitor" transform="translate(61.000000, 145.000000)">
                    <g id="Clipped">
                        <mask id="mask-2" fill="white">
                            <use xlink:href="#path-1"></use>
                        </mask>
                        <g id="SVGID_3_"></g>
                        <path d="M28.136,2 L3.868,2 C2.837,2 2.001,2.842 2.001,3.881 L2.001,21.12 C2.001,22.159 2.837,23 3.868,23 L28.136,23 C29.165,23 30.001,22.159 30.001,21.12 L30.001,3.881 C30.001,2.842 29.165,2 28.136,2 L28.136,2 Z M28.001,17 L4.001,17 L4.001,4 L28.001,4 L28.001,17 L28.001,17 Z" id="Shape" fill="#FFFFFF" mask="url(#mask-2)"></path>
                    </g>
                    <g id="Clipped">
                        <mask id="mask-4" fill="white">
                            <use xlink:href="#path-3"></use>
                        </mask>
                        <g id="SVGID_3_"></g>
                        <polygon id="Shape" fill="#FFFFFF" mask="url(#mask-4)" points="19.001 24.001 13.001 24.001 13.001 28.001 10.001 28.001 10.001 30.001 13.001 30.001 19.001 30.001 22.001 30.001 22.001 28.001 19.001 28.001"></polygon>
                    </g>
                </g>
            </g>
        </g>
    </g>
</svg>